<svg width="56" height="56" viewBox="0 0 56 56" fill="none" xmlns="http://www.w3.org/2000/svg">
<path d="M53.6881 0H2.31193C1.52336 0 0.878174 0.645189 0.878174 1.43375C0.878174 2.22232 1.52336 2.86751 2.31193 2.86751H5.40644V54.5304C5.40644 55.0561 5.69319 55.546 6.15916 55.7969C6.62513 56.0478 7.18669 56.0239 7.62876 55.7252L13.8536 51.5793L20.1024 55.7371C20.5803 56.0597 21.2136 56.0597 21.6915 55.7371L27.9164 51.5912L34.1651 55.7491C34.6431 56.0717 35.2763 56.0717 35.7542 55.7491L41.9791 51.6032L48.2279 55.761C48.4668 55.9164 48.7416 56 49.0164 56C49.2434 56 49.4824 55.9403 49.6975 55.8327C50.1634 55.5818 50.4502 55.092 50.4502 54.5662L50.4263 2.90335H53.6881C54.4766 2.90335 55.1218 2.25816 55.1218 1.4696C55.1218 0.681033 54.4766 0 53.6881 0ZM47.5946 51.8541L42.7796 48.652C42.3017 48.3294 41.6684 48.3294 41.1905 48.652L34.9656 52.8099L28.7169 48.652C28.239 48.3294 27.6057 48.3294 27.1278 48.652L20.9029 52.798L14.6541 48.652C14.1762 48.3294 13.543 48.3294 13.0651 48.652L8.27395 51.8421V2.85556H47.5827L47.5946 51.8541Z" fill="#071F41"/>
</svg>
