<svg width="46" height="56" viewBox="0 0 46 56" fill="none" xmlns="http://www.w3.org/2000/svg">
<path d="M44.7965 6.85344H16.7262C16.4095 5.07598 15.5219 3.44805 14.1799 2.20795C12.6391 0.784109 10.6344 0 8.53523 0C3.94597 0 0.212341 3.73363 0.212341 8.32289C0.212341 12.9122 3.94597 16.6458 8.53523 16.6458C9.37786 16.6458 10.2058 16.5178 11.0048 16.269C12.2568 17.4502 13.8081 18.3339 15.5601 18.7895C16.6919 19.0839 17.5518 20.0179 17.7505 21.1692L18.8066 27.2869C19.1798 29.4483 20.3825 31.322 22.1933 32.5629C23.5663 33.5037 24.386 35.0378 24.386 36.6667V49.1358C23.7525 49.5373 23.3467 50.243 23.3467 51.0216C23.3467 51.0453 23.347 51.0689 23.3478 51.0926C21.2717 51.5169 19.5618 51.9077 18.2637 52.2545C17.3794 52.4907 16.7123 52.6991 16.2242 52.8915C15.7694 53.0707 14.9228 53.4044 14.9228 54.1789C14.9228 55.2196 16.2759 55.3972 17.3631 55.5401C18.2972 55.6628 19.5912 55.765 21.2093 55.844C23.9428 55.9776 26.7119 55.9998 26.7396 56C26.7417 56 26.7438 56 26.7458 56C26.7479 56 26.7501 56 26.7521 56C26.7797 55.9998 29.5489 55.9775 32.2824 55.844C33.9005 55.765 35.1945 55.6628 36.1286 55.5401C37.2158 55.3972 38.5688 55.2196 38.5688 54.1789C38.5688 53.3558 37.8098 52.9312 35.0373 52.2039C33.3573 51.7632 31.2643 51.3183 29.7612 51.0147C29.7594 50.4148 29.5209 49.8541 29.1057 49.4417V36.6665C29.1057 35.0377 29.9255 33.5036 31.2985 32.5628C33.1092 31.3219 34.3119 29.4482 34.685 27.2868L35.7412 21.1691C35.9399 20.0178 36.7997 19.0837 37.9316 18.7894C41.727 17.8024 44.5816 14.8092 45.4844 11.1234C45.4879 11.1092 45.4916 11.0952 45.4945 11.0808C45.6851 10.2879 45.7875 9.464 45.7875 8.62061V7.84459C45.7876 7.29805 45.343 6.85344 44.7965 6.85344ZM8.53523 14.9839C4.86231 14.9839 1.87418 11.9958 1.87418 8.32289C1.87418 4.64997 4.86231 1.66184 8.53523 1.66184C10.2151 1.66184 11.8192 2.28922 13.0521 3.42847C14.0524 4.3528 14.7369 5.54575 15.0312 6.85344H14.1802C13.5224 4.31988 11.2139 2.48828 8.53523 2.48828C5.31797 2.48828 2.70062 5.10573 2.70062 8.32289C2.70062 11.54 5.31808 14.1575 8.53523 14.1575C8.77476 14.1575 9.01484 14.1413 9.25393 14.1115C9.4134 14.3717 9.58414 14.6244 9.76537 14.8695C9.36156 14.9454 8.95053 14.9839 8.53523 14.9839ZM11.0796 5.7785C10.7552 5.45409 10.229 5.45409 9.90461 5.7785L9.65611 6.027C9.43232 6.25067 9.36298 6.57027 9.44775 6.85344H8.69547C8.14892 6.85344 7.70431 7.29805 7.70431 7.84459V8.62061C7.70431 9.46378 7.80658 10.2875 7.99722 11.0801C8.00017 11.0955 8.00411 11.1105 8.00783 11.1256C8.12256 11.5935 8.2677 12.0506 8.44336 12.4935C6.18487 12.4443 4.36236 10.593 4.36236 8.32289C4.36236 6.02197 6.23431 4.15002 8.53523 4.15002C10.3005 4.15002 11.8415 5.2617 12.4406 6.85344H11.1638C11.4001 6.52848 11.3726 6.07152 11.0796 5.7785ZM29.3098 52.6189C32.2309 53.2067 34.0648 53.6522 35.2126 53.974C33.1134 54.1802 29.7461 54.3152 26.7459 54.3382C23.7464 54.3152 20.3795 54.1802 18.2802 53.9742C19.378 53.6663 21.103 53.2454 23.8063 52.6949C24.5541 52.5428 25.0717 51.8425 25.0104 51.0666C25.0092 51.0518 25.0085 51.0367 25.0085 51.0215C25.0085 50.7641 25.1825 50.5378 25.4318 50.471C25.7952 50.3737 26.0478 50.0445 26.0478 49.6684V36.6665C26.0478 35.5725 25.7724 34.5115 25.267 33.568C25.7314 33.5981 26.2384 33.6135 26.7459 33.6135C27.2534 33.6135 27.7605 33.5981 28.2249 33.568C27.7195 34.5116 27.4441 35.5726 27.4441 36.6665V49.8361C27.4441 50.1212 27.5903 50.3864 27.8314 50.5386C27.9993 50.6446 28.0996 50.825 28.0996 51.0214C28.0996 51.034 28.0991 51.0466 28.0985 51.0581C28.0506 51.7994 28.5713 52.4704 29.3098 52.6189ZM44.126 8.62061H44.1259C44.1259 9.12012 44.0839 9.61166 44.0031 10.0917H18.989C18.5301 10.0917 18.158 10.4637 18.158 10.9226C18.158 11.3815 18.53 11.7535 18.989 11.7535H43.5522C42.5586 14.3772 40.348 16.4442 37.5137 17.1812C35.7518 17.6393 34.4134 19.0937 34.1039 20.8865L33.0478 27.0041C32.7516 28.7198 31.7969 30.2071 30.3594 31.1921C30.1365 31.3449 29.4745 31.7017 29.3538 31.7555C28.6962 32.0147 24.8013 32.0148 24.1393 31.756C24.0189 31.7028 23.3562 31.3453 23.1326 31.1922C21.6951 30.2071 20.7404 28.7198 20.4442 27.0042L19.3881 20.8866C19.0787 19.0938 17.7401 17.6395 15.9783 17.1813C14.3745 16.7642 12.9708 15.921 11.8736 14.7925C11.8475 14.7604 11.819 14.7308 11.7889 14.7033C10.9875 13.856 10.3565 12.8541 9.93983 11.7537H15.1231C15.5819 11.7537 15.954 11.3817 15.954 10.9227C15.954 10.4639 15.582 10.0918 15.1231 10.0918H9.48887C9.40815 9.61176 9.36615 9.12012 9.36615 8.62072V8.51528H44.126V8.62061Z" fill="#071F41"/>
</svg>
