<svg aria-hidden="true" style="position: absolute; width: 0; height: 0; overflow: hidden;" version="1.1" xmlns="http://www.w3.org/2000/svg" xmlns:xlink="http://www.w3.org/1999/xlink">
<defs>
<symbol id="icon-bg_mobile" viewBox="0 0 30 32">
<path fill="#f5f6fb" style="fill: var(--color1, #f5f6fb)" d="M0 0h29.942v32h-18.713c-6.201 0-11.228-5.027-11.228-11.228v-20.772z"></path>
</symbol>
<symbol id="icon-capusta_1x" viewBox="0 0 30 32">
<path fill="#dfe2eb" style="fill: var(--color2, #dfe2eb)" d="M14.976 32c-1.429 0-2.831-0.309-4.196-0.927-1.574-0.713-3.086-1.589-4.494-2.602-0.062-0.044-0.12-0.091-0.174-0.141l-1.514 1.219c-0.105 0.085-0.252 0.094-0.367 0.024-0.052-0.032-1.298-0.802-2.352-2.033-1.058-1.235-1.522-2.448-1.541-2.499-0.042-0.111-0.019-0.236 0.060-0.325l0.931-1.053c0.023-0.026 0.049-0.047 0.077-0.063-0.476-0.926-1.114-2.65-1.345-5.488-0.204-2.513 0.114-4.574 0.945-6.125 0.044-0.083 0.11-0.219 0.181-0.366 0.122-0.251 0.248-0.511 0.334-0.653 0.085-0.14 0.179-0.301 0.282-0.48 0.801-1.387 2.292-3.967 5.698-5.934 2.887-1.667 4.323-1.84 5.591-1.993 0.754-0.091 1.405-0.17 2.281-0.562 2.229-0.998 2.675-1.815 2.679-1.823 0.043-0.081 0.119-0.143 0.208-0.165s0.184-0.008 0.26 0.044c0.234 0.162 1.399 1.009 1.412 1.828 0.006 0.397-0.131 0.669-0.232 0.867-0.103 0.203-0.099 0.208-0.056 0.266 0.047 0.062 0.132 0.096 0.267 0.147 0.322 0.121 0.808 0.304 0.831 1.244 0.018 0.749-0.377 1.167-0.698 1.47 0.635 0.317 2.264 1.183 3.557 2.316 0.835 0.732 1.489 1.588 1.892 2.177 0.307 0.449 0.492 0.746 0.597 0.949 0.412-0.223 0.692-0.319 0.909-0.394 0.255-0.087 0.396-0.136 0.617-0.341 0.735-0.682 1.935-0.146 2.080-0.045 0.082 0.057 0.135 0.146 0.146 0.245 0.020 0.183-0.084 0.297-0.275 0.503-0.316 0.342-0.974 1.055-1.29 2.264-0.283 1.084-0.224 2.343-0.172 3.453 0.033 0.701 0.064 1.364 0.001 1.887-0.206 1.712-0.636 5.274-3.261 8.201-1.255 1.4-2.831 2.623-4.461 3.481-0.028 0.022-0.060 0.038-0.093 0.049-0.402 0.208-0.807 0.393-1.211 0.553-1.385 0.549-2.755 0.824-4.102 0.824zM13.221 31.18c2.388 0.448 4.714-0.089 6.74-1.114 0.14-0.286 0.547-1.244 0.517-2.693-0.035-1.707-0.331-2.246-0.334-2.251-0.086-0.151-0.037-0.347 0.112-0.436s0.341-0.046 0.433 0.101c0.040 0.063 0.389 0.672 0.428 2.572 0.020 0.943-0.128 1.696-0.288 2.227 1.376-0.823 2.583-1.856 3.538-2.921 0.496-0.553 0.909-1.131 1.255-1.716-0.117-0.286-0.38-1.113-0.237-2.502 0.167-1.617 0.228-2.5 0.228-2.508 0.012-0.176 0.167-0.308 0.341-0.297 0.176 0.012 0.309 0.165 0.297 0.341-0.001 0.009-0.063 0.9-0.23 2.53-0.073 0.712-0.029 1.253 0.038 1.626 1.022-2.092 1.271-4.156 1.411-5.324 0.057-0.47 0.027-1.107-0.005-1.78-0.054-1.157-0.116-2.468 0.192-3.645 0.329-1.259 0.977-2.031 1.352-2.442-0.298-0.078-0.718-0.119-0.96 0.107-0.32 0.297-0.563 0.38-0.844 0.477-0.266 0.091-0.596 0.204-1.172 0.56-0.531 0.329-0.544 0.759-0.52 1.435 0.016 0.447 0.033 0.954-0.228 1.402-0.456 0.783-1.012 0.603-1.379 0.485-0.199-0.064-0.372-0.12-0.552-0.078-0.017 0.138 0.101 0.526 0.189 0.814 0.202 0.662 0.478 1.569 0.328 2.484-0.084 0.511-0.237 0.824-0.482 0.984-0.286 0.187-0.591 0.109-0.836 0.046-0.322-0.083-0.384-0.075-0.477 0.059-0.354 0.512-0.452 0.98-0.589 1.627-0.058 0.273-0.123 0.582-0.216 0.93-0.145 0.543-0.424 0.924-0.829 1.13-0.615 0.313-1.502 0.227-2.788-0.271-1.085-0.42-2.072-0.517-2.709-0.524-0.003 0-0.007 0-0.010 0-0.278 0-0.529 0.13-0.804 0.333-1.845 1.771-3.878 2.77-5.88 2.861-0.387 0.017-0.795 0.003-1.207-0.035-0.45 0.113-0.721 0.461-0.832 0.794-0.138 0.414-0.092 0.995 0.449 1.385 1.374 0.989 2.849 1.844 4.384 2.539 0.464 0.21 0.929 0.378 1.392 0.507 0.204-0.154 1.149-0.904 2.020-2.198-0.067-0.153-0.461-1.076-0.508-1.895-0.024-0.408-0.037-0.933 0.031-1.115l0.598 0.225c0 0 0.004-0.007 0.008-0.026-0.002 0.007-0.040 0.188 0 0.879 0.025 0.429 0.169 0.913 0.29 1.252 0.972-1.686 1.115-2.287 1.116-2.293 0.038-0.171 0.208-0.28 0.379-0.244s0.281 0.203 0.247 0.375c-0.014 0.070-0.169 0.734-1.267 2.62-0.745 1.279-1.611 2.15-2.128 2.604zM1.009 24.988c0.163 0.366 0.599 1.252 1.355 2.134s1.637 1.525 2.014 1.781l1.196-0.963c-0.438-0.337-1.141-0.884-1.59-1.27-1.186-1.020-2.041-2.194-2.076-2.244-0.015-0.020-0.027-0.042-0.036-0.064-0.037-0.049-0.083-0.114-0.137-0.195l-0.725 0.821zM3.136 24.923c0.337 0.382 0.774 0.84 1.265 1.262 0.3 0.258 0.728 0.599 1.107 0.895-0.014-0.235 0.017-0.477 0.097-0.716 0.093-0.282 0.244-0.526 0.436-0.724-1.101-0.185-2.16-0.482-2.904-0.718zM2.397 23.995c0.438 0.16 2.614 0.928 4.616 1.13 0.125-0.023 0.255-0.033 0.387-0.031 0.618 0.011 1.208-0.033 1.754-0.132 2.004-0.367 3.31-1.465 4.091-2.122 0.137-0.116 0.261-0.219 0.371-0.305 0.035-0.027 0.070-0.054 0.105-0.081 0.552-0.534 1.088-1.141 1.601-1.818 2.028-2.677 1.902-3.957 1.842-4.572l-0.009-0.089c-0.014-0.159-0.103-0.447-0.198-0.752-0.245-0.793-0.582-1.878-0.264-2.679 0.293-0.739 1.040-0.806 1.761-0.87 0.518-0.046 1.053-0.094 1.47-0.371 0.894-0.594 0.444-2.122 0.036-2.931-0.161-0.32-0.359-0.56-0.534-0.772-0.3-0.363-0.61-0.739-0.468-1.306 0.091-0.362 0.341-0.596 0.583-0.822 0.307-0.287 0.573-0.535 0.56-1.048-0.012-0.508-0.156-0.562-0.416-0.66-0.175-0.066-0.392-0.147-0.553-0.362-0.286-0.381-0.123-0.704-0.003-0.94 0.086-0.169 0.167-0.329 0.163-0.567-0.004-0.3-0.468-0.786-0.885-1.123-0.325 0.381-1.084 1.056-2.774 1.813-0.965 0.432-1.694 0.52-2.465 0.613-1.207 0.146-2.574 0.311-5.348 1.912-3.258 1.881-4.639 4.271-5.464 5.7-0.106 0.184-0.202 0.349-0.29 0.493-0.071 0.115-0.2 0.383-0.304 0.598-0.076 0.156-0.146 0.3-0.193 0.389-0.715 1.336-1.019 3.101-0.905 5.254 0.479-1.613 1.456-4.012 3.39-6.241 3.242-3.737 9.542-5.776 9.809-5.861 0.169-0.053 0.348 0.040 0.401 0.208s-0.039 0.348-0.207 0.402c-0.061 0.019-5.787 1.874-9.036 5.149 0.63 0.208 2.091 0.623 3.108 0.391 0.418-0.096 0.779-0.186 1.098-0.266 0.789-0.198 1.359-0.342 2.030-0.368 0.004-0 0.009-0 0.013-0 0.171 0 0.313 0.135 0.319 0.308 0.007 0.177-0.13 0.325-0.307 0.332-0.576 0.023-1.095 0.147-1.792 0.322l0.623 0.598c0.127 0.123 0.132 0.325 0.009 0.453s-0.325 0.132-0.452 0.009l-0.914-0.878c-0.153 0.037-0.314 0.075-0.485 0.114-1.391 0.317-3.349-0.363-3.727-0.502-0.003 0.003-0.005 0.006-0.008 0.009-1.038 1.196-1.791 2.455-2.333 3.604 0.852-0.464 2.244-1.063 3.129-0.621 0.588 0.294 1.036 0.822 1.469 1.334 0.473 0.559 0.92 1.087 1.506 1.285 0.167 0.057 0.257 0.238 0.2 0.406s-0.238 0.257-0.405 0.201c-0.754-0.255-1.28-0.877-1.789-1.478-0.185-0.218-0.365-0.431-0.551-0.621-0.134 0.416-0.358 1.202-0.365 1.844-0.010 0.914 0.446 2.209 0.45 2.222 0.059 0.167-0.028 0.35-0.194 0.409s-0.349-0.027-0.408-0.194c-0.020-0.057-0.499-1.414-0.487-2.444 0.010-0.904 0.377-1.994 0.479-2.282-0.062-0.040-0.126-0.077-0.191-0.11-0.798-0.398-2.63 0.623-3.209 1.013-0.022 0.015-0.045 0.026-0.069 0.035-0.722 1.822-0.897 3.172-0.9 3.196-0 0.003-0.001 0.006-0.001 0.009 0.441 2.897 1.322 4.193 1.53 4.464zM15.055 21.975c0.691 0.017 1.712 0.133 2.829 0.565 1.075 0.417 1.838 0.517 2.268 0.298 0.24-0.122 0.403-0.359 0.501-0.724 0.089-0.331 0.149-0.619 0.208-0.897 0.141-0.666 0.262-1.241 0.689-1.859 0.36-0.522 0.862-0.392 1.162-0.315 0.13 0.033 0.277 0.071 0.327 0.038 0.021-0.013 0.127-0.103 0.201-0.551 0.125-0.768-0.115-1.558-0.309-2.193-0.18-0.589-0.309-1.015-0.132-1.333 0.055-0.098 0.164-0.227 0.375-0.282 0.368-0.097 0.678 0.003 0.928 0.084 0.35 0.113 0.433 0.14 0.63-0.198 0.168-0.288 0.155-0.662 0.141-1.057-0.021-0.609-0.047-1.356 0.663-1.893-0.232-0.421-1.077-1.857-2.359-2.982-1.349-1.184-3.14-2.088-3.574-2.3-0.011 0.024-0.019 0.048-0.025 0.073-0.058 0.233 0.035 0.372 0.341 0.743 0.187 0.226 0.419 0.508 0.612 0.892 0.623 1.239 0.931 2.965-0.254 3.752-0.553 0.367-1.198 0.424-1.767 0.475-0.687 0.061-1.083 0.113-1.224 0.469-0.234 0.591 0.063 1.552 0.28 2.254 0.109 0.353 0.204 0.658 0.224 0.884l0.008 0.084c0.069 0.696 0.211 2.145-1.968 5.022-0.253 0.334-0.512 0.651-0.775 0.952z"></path>
</symbol>
<symbol id="icon-category_alcohol" viewBox="0 0 26 32">
<path d="M25.598 3.916h-16.040c-0.181-1.016-0.688-1.946-1.455-2.655-0.88-0.814-2.026-1.262-3.226-1.262-2.622 0-4.756 2.133-4.756 4.756s2.134 4.756 4.756 4.756c0.481 0 0.955-0.073 1.411-0.215 0.715 0.675 1.602 1.18 2.603 1.44 0.647 0.168 1.138 0.702 1.252 1.36l0.604 3.496c0.213 1.235 0.9 2.306 1.935 3.015 0.785 0.538 1.253 1.414 1.253 2.345v7.125c-0.362 0.229-0.594 0.633-0.594 1.078 0 0.014 0 0.027 0.001 0.041-1.186 0.242-2.163 0.466-2.905 0.664-0.505 0.135-0.886 0.254-1.165 0.364-0.26 0.102-0.744 0.293-0.744 0.736 0 0.595 0.773 0.696 1.394 0.778 0.534 0.070 1.273 0.128 2.198 0.174 1.562 0.076 3.144 0.089 3.16 0.089 0.001 0 0.002 0 0.004 0s0.002 0 0.004 0c0.016-0 1.598-0.013 3.16-0.089 0.925-0.045 1.664-0.104 2.198-0.174 0.621-0.082 1.394-0.183 1.394-0.778 0-0.47-0.434-0.713-2.018-1.129-0.96-0.252-2.156-0.506-3.015-0.68-0.001-0.343-0.137-0.663-0.375-0.899v-7.3c0-0.931 0.468-1.807 1.253-2.345 1.035-0.709 1.722-1.78 1.935-3.015l0.604-3.496c0.114-0.658 0.605-1.192 1.252-1.36 2.169-0.564 3.8-2.274 4.316-4.381 0.002-0.008 0.004-0.016 0.006-0.024 0.109-0.453 0.167-0.924 0.167-1.406v-0.443c0-0.312-0.254-0.566-0.566-0.566zM4.877 8.562c-2.099 0-3.806-1.707-3.806-3.806s1.708-3.806 3.806-3.806c0.96 0 1.877 0.359 2.581 1.010 0.572 0.528 0.963 1.21 1.131 1.957h-0.486c-0.376-1.448-1.695-2.494-3.226-2.494-1.838 0-3.334 1.496-3.334 3.334s1.496 3.334 3.334 3.334c0.137 0 0.274-0.009 0.411-0.026 0.091 0.149 0.189 0.293 0.292 0.433-0.231 0.043-0.466 0.065-0.703 0.065zM6.331 3.302c-0.185-0.185-0.486-0.185-0.671 0l-0.142 0.142c-0.128 0.128-0.168 0.31-0.119 0.472h-0.43c-0.312 0-0.566 0.254-0.566 0.566v0.443c0 0.482 0.058 0.952 0.167 1.405 0.002 0.009 0.004 0.017 0.006 0.026 0.066 0.267 0.149 0.529 0.249 0.782-1.291-0.028-2.332-1.086-2.332-2.383 0-1.315 1.070-2.385 2.385-2.385 1.009 0 1.889 0.635 2.232 1.545h-0.73c0.135-0.186 0.119-0.447-0.048-0.614zM16.748 30.068c1.669 0.336 2.717 0.59 3.373 0.774-1.2 0.118-3.124 0.195-4.838 0.208-1.714-0.013-3.638-0.090-4.838-0.208 0.627-0.176 1.613-0.416 3.158-0.731 0.427-0.087 0.723-0.487 0.688-0.93-0.001-0.008-0.001-0.017-0.001-0.026 0-0.147 0.099-0.276 0.242-0.315 0.208-0.056 0.352-0.244 0.352-0.459v-7.43c0-0.625-0.157-1.231-0.446-1.771 0.265 0.017 0.555 0.026 0.845 0.026s0.58-0.009 0.845-0.026c-0.289 0.539-0.446 1.145-0.446 1.771v7.526c0 0.163 0.084 0.314 0.221 0.401 0.096 0.061 0.153 0.164 0.153 0.276 0 0.007-0 0.014-0.001 0.021-0.027 0.424 0.27 0.807 0.692 0.892zM25.215 4.926h-0c0 0.285-0.024 0.566-0.070 0.841h-14.294c-0.262 0-0.475 0.213-0.475 0.475s0.213 0.475 0.475 0.475h14.036c-0.568 1.499-1.831 2.68-3.451 3.102-1.007 0.262-1.772 1.093-1.948 2.117l-0.604 3.496c-0.169 0.98-0.715 1.83-1.536 2.393-0.127 0.087-0.506 0.291-0.575 0.322-0.376 0.148-2.601 0.148-2.98 0-0.069-0.030-0.447-0.235-0.575-0.322-0.821-0.563-1.367-1.413-1.536-2.393l-0.604-3.496c-0.177-1.024-0.942-1.855-1.948-2.117-0.916-0.238-1.719-0.72-2.346-1.365-0.015-0.018-0.031-0.035-0.048-0.051-0.458-0.484-0.819-1.057-1.057-1.686h2.962c0.262 0 0.475-0.213 0.475-0.475s-0.213-0.475-0.475-0.475h-3.22c-0.046-0.274-0.070-0.555-0.070-0.841v-0.060h19.863v0.060z"></path>
</symbol>
<symbol id="icon-category_circle" viewBox="0 0 40 32">
<path fill="#f5f6fb" style="fill: var(--color1, #f5f6fb)" d="M13.617 0.492h12.936c7.52 0 13.617 6.097 13.617 13.617v4.085c0 7.52-6.097 13.617-13.617 13.617h-12.936c-7.52 0-13.617-6.097-13.617-13.617v-4.085c0-7.52 6.097-13.617 13.617-13.617z"></path>
</symbol>
<symbol id="icon-category_communal" viewBox="0 0 32 32">
<path d="M30.679 0h-29.358c-0.451 0-0.819 0.369-0.819 0.819s0.369 0.819 0.819 0.819h1.768v29.522c0 0.3 0.164 0.58 0.43 0.724s0.587 0.13 0.84-0.041l3.557-2.369 3.571 2.376c0.273 0.184 0.635 0.184 0.908 0l3.557-2.369 3.571 2.376c0.273 0.184 0.635 0.184 0.908 0l3.557-2.369 3.571 2.376c0.137 0.089 0.294 0.137 0.451 0.137 0.13 0 0.266-0.034 0.389-0.096 0.266-0.143 0.43-0.423 0.43-0.724l-0.014-29.522h1.864c0.451 0 0.819-0.369 0.819-0.819s-0.369-0.84-0.819-0.84zM27.197 29.631l-2.751-1.83c-0.273-0.184-0.635-0.184-0.908 0l-3.557 2.376-3.571-2.376c-0.273-0.184-0.635-0.184-0.908 0l-3.557 2.369-3.571-2.369c-0.273-0.184-0.635-0.184-0.908 0l-2.738 1.823v-27.992h22.462l0.007 27.999z"></path>
<path d="M8.497 13.081h8.582c0.451 0 0.819-0.369 0.819-0.819s-0.369-0.819-0.819-0.819h-8.582c-0.451 0-0.819 0.369-0.819 0.819s0.362 0.819 0.819 0.819z"></path>
<path d="M8.497 15.928h6.431c0.451 0 0.819-0.369 0.819-0.819s-0.369-0.819-0.819-0.819h-6.431c-0.451 0-0.819 0.369-0.819 0.819s0.362 0.819 0.819 0.819z"></path>
<path d="M21.366 13.081h2.144c0.451 0 0.819-0.369 0.819-0.819s-0.369-0.819-0.819-0.819h-2.144c-0.451 0-0.819 0.369-0.819 0.819s0.362 0.819 0.819 0.819z"></path>
<path d="M21.366 15.928h2.144c0.451 0 0.819-0.369 0.819-0.819s-0.369-0.819-0.819-0.819h-2.144c-0.451 0-0.819 0.369-0.819 0.819s0.362 0.819 0.819 0.819z"></path>
<path d="M8.497 6.507h8.582c0.451 0 0.819-0.369 0.819-0.819s-0.369-0.819-0.819-0.819h-8.582c-0.451 0-0.819 0.369-0.819 0.819s0.362 0.819 0.819 0.819z"></path>
<path d="M8.497 9.347h6.431c0.451 0 0.819-0.369 0.819-0.819s-0.369-0.819-0.819-0.819h-6.431c-0.451 0-0.819 0.369-0.819 0.819s0.362 0.819 0.819 0.819z"></path>
<path d="M21.366 6.507h2.144c0.451 0 0.819-0.369 0.819-0.819s-0.369-0.819-0.819-0.819h-2.144c-0.451 0-0.819 0.369-0.819 0.819s0.362 0.819 0.819 0.819z"></path>
<path d="M21.366 9.347h2.144c0.451 0 0.819-0.369 0.819-0.819s-0.369-0.819-0.819-0.819h-2.144c-0.451 0-0.819 0.369-0.819 0.819s0.362 0.819 0.819 0.819z"></path>
<path d="M8.497 19.738h8.582c0.451 0 0.819-0.369 0.819-0.819s-0.369-0.819-0.819-0.819h-8.582c-0.451 0-0.819 0.369-0.819 0.819s0.362 0.819 0.819 0.819z"></path>
<path d="M8.497 22.578h6.431c0.451 0 0.819-0.369 0.819-0.819s-0.369-0.819-0.819-0.819h-6.431c-0.451 0-0.819 0.369-0.819 0.819s0.362 0.819 0.819 0.819z"></path>
<path d="M21.366 19.738h2.144c0.451 0 0.819-0.369 0.819-0.819s-0.369-0.819-0.819-0.819h-2.144c-0.451 0-0.819 0.369-0.819 0.819s0.362 0.819 0.819 0.819z"></path>
<path d="M21.366 22.578h2.144c0.451 0 0.819-0.369 0.819-0.819s-0.369-0.819-0.819-0.819h-2.144c-0.451 0-0.819 0.369-0.819 0.819s0.362 0.819 0.819 0.819z"></path>
</symbol>
<symbol id="icon-category_education" viewBox="0 0 43 32">
<path d="M41.84 3.242c-0.003 0-0.006 0-0.008 0h-2.804v-0.959c0.015-0.38-0.231-0.721-0.596-0.827-1.946-0.51-3.951-0.766-5.963-0.761-3.308 0-7.815 0.744-11.148 4.135-3.308-3.424-7.849-4.135-11.148-4.135-2.012-0.005-4.016 0.251-5.963 0.761-0.365 0.106-0.611 0.447-0.595 0.827v0.951h-2.787c-0.457 0-0.827 0.37-0.827 0.827v26.415c0 0.457 0.37 0.827 0.827 0.827 0.142-0 0.282-0.037 0.405-0.108 0.083-0.041 8.353-4.565 19.898-1.654h0.198c0.066 0.008 0.133 0.008 0.198 0 11.578-2.936 19.849 1.58 19.898 1.654 0.256 0.148 0.571 0.148 0.827 0 0.254-0.147 0.412-0.418 0.413-0.711v-26.415c0-0.457-0.37-0.827-0.827-0.827zM1.654 29.161v-24.265h1.977v20.742c-0.005 0.457 0.361 0.831 0.818 0.836 0.045 0 0.089-0.003 0.133-0.009 1.711-0.261 3.438-0.399 5.169-0.413 2.397-0.042 4.785 0.319 7.063 1.067-5.145-0.622-10.363 0.081-15.159 2.043zM9.751 24.405c-1.504 0.003-3.007 0.1-4.499 0.289v-21.759c1.61-0.359 3.255-0.542 4.904-0.546 3.093 0 7.361 0.711 10.321 4.052l0.025 20.601c-1.72-1.125-5.078-2.638-10.751-2.638zM22.156 6.442c2.961-3.308 7.228-4.052 10.321-4.052 1.65 0.005 3.294 0.188 4.904 0.546v21.759c-1.484-0.191-2.978-0.291-4.474-0.298-5.64 0-9.006 1.514-10.751 2.638v-20.593zM41.004 29.161c-4.807-1.967-10.037-2.67-15.193-2.043 2.289-0.751 4.688-1.111 7.096-1.067 1.742 0.010 3.48 0.145 5.202 0.405 0.452 0.069 0.873-0.242 0.942-0.694 0.007-0.044 0.010-0.089 0.009-0.134v-20.734h1.977l-0.033 24.265z"></path>
</symbol>
<symbol id="icon-category_entertainment" viewBox="0 0 30 32">
<path d="M29.138 15.724l-1.285-1.285v-12.228l1.080-1.080c0.212-0.212 0.212-0.555 0-0.767s-0.555-0.212-0.767 0l-1.080 1.080h-12.228l-1.285-1.285c-0.212-0.212-0.555-0.212-0.767 0s-0.212 0.555 0 0.767l1.23 1.23-3.815 16.168c-0.315 0.393-0.42 0.917-0.273 1.407 0.164 0.545 0.612 0.953 1.169 1.066l2.433 0.494c0.461 0.094 0.854 0.385 1.076 0.8s0.249 0.903 0.072 1.339c-0.288 0.71-1.040 1.11-1.789 0.951l-9.115-1.931c-1.373-0.291-2.756 0.488-3.22 1.812-0.269 0.768-0.19 1.613 0.215 2.318s1.096 1.198 1.895 1.352l0.038 0.007c0.718 0.139 1.328 0.588 1.674 1.233s0.381 1.402 0.098 2.076c-0.116 0.276 0.014 0.594 0.29 0.71 0.069 0.029 0.139 0.042 0.209 0.042 0.212 0 0.413-0.125 0.5-0.333 0.41-0.977 0.358-2.073-0.142-3.007s-1.384-1.585-2.424-1.786l-0.038-0.007c-0.489-0.094-0.912-0.396-1.16-0.828s-0.296-0.949-0.132-1.42c0.284-0.811 1.132-1.288 1.972-1.11l9.115 1.931c1.264 0.268 2.533-0.407 3.019-1.604 0.298-0.736 0.254-1.559-0.122-2.259s-1.037-1.192-1.816-1.35l-2.433-0.494c-0.242-0.049-0.323-0.238-0.347-0.316-0.019-0.064-0.047-0.208 0.036-0.354l16.118-3.804 1.23 1.23c0.106 0.106 0.245 0.159 0.383 0.159s0.277-0.053 0.383-0.159c0.212-0.212 0.212-0.555 0-0.767zM26.002 2.528l-5.030 5.030-5.030-5.030h10.060zM14.938 3.057l5.268 5.268-8.522 8.522 3.254-13.79zM12.45 17.613l8.522-8.522 5.268 5.268-13.79 3.254zM26.769 13.355l-5.030-5.030 5.030-5.030v10.060z"></path>
</symbol>
<symbol id="icon-category_health" viewBox="0 0 32 32">
<path d="M31.882 17.829l-0.57-8.305c-0.037-0.538-0.282-1.029-0.689-1.382s-0.928-0.527-1.465-0.487c-1.057 0.077-1.877 0.968-1.866 2.027l0.067 6.771-2.933 3.756c-0.468 0.6-1.245 0.84-1.95 0.66l3.191-4.144c0.56-0.727 0.467-1.781-0.212-2.399-0.362-0.33-0.831-0.493-1.32-0.459s-0.931 0.261-1.244 0.638l-4.821 5.806c-0.795 0.958-1.226 2.17-1.214 3.415l0.075 7.71c0.003 0.307 0.253 0.555 0.56 0.555l8.027 0.011c0 0 0 0 0.001 0 0.157 0 0.307-0.066 0.413-0.181s0.159-0.271 0.146-0.428l-0.328-3.774 5.329-7.082c0.584-0.776 0.869-1.737 0.803-2.706zM30.183 19.861l-5.458 7.254c-0.083 0.11-0.123 0.248-0.111 0.386l0.293 3.378-6.86-0.009-0.069-7.155c-0.010-0.979 0.33-1.934 0.956-2.687l4.821-5.806c0.116-0.139 0.279-0.223 0.459-0.235s0.354 0.047 0.487 0.169c0.251 0.228 0.285 0.617 0.078 0.885l-3.621 4.703c-0.095 0.123-0.134 0.28-0.109 0.434s0.114 0.29 0.243 0.375c1.296 0.86 3.061 0.573 4.018-0.653l3.054-3.911c0.078-0.1 0.12-0.224 0.119-0.351l-0.069-6.967c-0.005-0.469 0.358-0.863 0.826-0.898 0.239-0.017 0.469 0.059 0.649 0.216s0.289 0.374 0.305 0.612l0.569 8.305c0.048 0.7-0.158 1.395-0.58 1.955z"></path>
<path d="M9.108 14.504c-0.313-0.377-0.755-0.604-1.244-0.638s-0.958 0.129-1.32 0.459c-0.679 0.618-0.772 1.672-0.212 2.399l3.191 4.144c-0.704 0.18-1.482-0.060-1.95-0.66l-2.933-3.756 0.067-6.771c0.010-1.060-0.809-1.95-1.866-2.027-0.537-0.039-1.058 0.134-1.466 0.487s-0.652 0.844-0.689 1.382l-0.57 8.305c-0.066 0.969 0.219 1.93 0.803 2.706l5.329 7.082-0.328 3.774c-0.014 0.157 0.039 0.312 0.146 0.428s0.256 0.181 0.413 0.181c0 0 0.001 0 0.001 0l8.027-0.011c0.307-0 0.557-0.248 0.56-0.555l0.075-7.71c0.012-1.244-0.419-2.457-1.214-3.415l-4.821-5.806zM13.952 30.868l-6.86 0.009 0.293-3.378c0.012-0.138-0.027-0.275-0.111-0.386l-5.458-7.254c-0.422-0.561-0.628-1.255-0.58-1.955l0.57-8.305c0.016-0.238 0.125-0.456 0.305-0.612 0.164-0.142 0.368-0.218 0.583-0.218 0.022 0 0.044 0.001 0.066 0.002 0.468 0.034 0.831 0.428 0.826 0.898l-0.069 6.967c-0.001 0.127 0.041 0.251 0.119 0.351l3.054 3.911c0.957 1.226 2.722 1.513 4.018 0.653 0.13-0.086 0.218-0.222 0.243-0.375s-0.014-0.311-0.109-0.434l-3.621-4.703c-0.207-0.268-0.172-0.657 0.078-0.885 0.134-0.122 0.307-0.182 0.487-0.169s0.343 0.096 0.459 0.235l4.821 5.806c0.626 0.754 0.965 1.708 0.956 2.687l-0.069 7.155z"></path>
<path d="M26.986 6.31c0-1.685-0.656-3.27-1.848-4.462s-2.776-1.848-4.462-1.848c-1.686 0-3.27 0.656-4.462 1.848l-0.213 0.213-0.213-0.213c-1.192-1.192-2.776-1.848-4.462-1.848s-3.27 0.656-4.462 1.848c-2.46 2.46-2.46 6.464 0 8.924l8.741 8.741c0.11 0.109 0.253 0.164 0.397 0.164s0.287-0.055 0.397-0.164l8.741-8.741c1.192-1.192 1.848-2.776 1.848-4.462zM16 18.323l-8.344-8.344c-2.023-2.023-2.023-5.315 0-7.338 0.98-0.98 2.283-1.52 3.669-1.52s2.689 0.54 3.669 1.52l0.61 0.61c0.105 0.105 0.248 0.164 0.396 0.164s0.291-0.059 0.397-0.164l0.61-0.61c0.98-0.98 2.283-1.52 3.669-1.52s2.689 0.54 3.669 1.52c0.98 0.98 1.52 2.283 1.52 3.669s-0.54 2.689-1.52 3.669l-8.344 8.344z"></path>
</symbol>
<symbol id="icon-category_housing" viewBox="0 0 56 32">
<path d="M53.225 8.916h-1.113v-4.135c0-2.444-1.989-4.433-4.433-4.433h-16.066c-1.489 0-2.809 0.739-3.613 1.869-0.804-1.13-2.123-1.869-3.613-1.869h-10.093c-0.453 0-0.82 0.367-0.82 0.82s0.367 0.82 0.82 0.82h10.093c1.54 0 2.793 1.253 2.793 2.792v8.204c-0.017-0.017-0.035-0.032-0.053-0.048-0.972-0.907-2.29-1.429-3.62-1.429h-13.664c-0.072-1.101-0.823-2.070-1.859-2.437-0.292-0.103-0.601-0.154-0.91-0.154h-1.544v-4.135c0-1.54 1.253-2.792 2.792-2.792h2.692c0.453 0 0.82-0.367 0.82-0.82s-0.367-0.82-0.82-0.82h-2.692c-2.444 0-4.433 1.989-4.433 4.433v4.135h-1.113c-1.53 0-2.775 1.245-2.775 2.775v8.565c0 3.187 2.593 5.78 5.78 5.78h0.412c0 0-0.898 2.416-0.899 2.418-0.567 1.524 0.6 3.198 2.223 3.198h1.32c0.739 0 1.446-0.352 1.892-0.941l3.536-4.675h27.473l3.536 4.675c0.446 0.589 1.153 0.941 1.891 0.941 0 0 1.319 0 1.32 0 1.625 0 2.79-1.674 2.223-3.198l-0.899-2.418h0.412c3.187 0 5.78-2.593 5.78-5.78v-8.565c0-1.53-1.245-2.775-2.775-2.775zM28.82 4.781c0-1.54 1.253-2.793 2.793-2.793h16.066c1.54 0 2.792 1.253 2.792 2.792v4.135c0 0-1.544 0-1.545 0-1.091 0-2.137 0.7-2.56 1.704-0.118 0.281-0.189 0.583-0.209 0.888 0 0-13.664 0-13.664 0-1.351 0-2.697 0.543-3.673 1.478v-8.204zM9.849 13.148h13.658c2.026 0 3.673 1.648 3.673 3.673v1.166h-17.331v-4.84zM9.419 29.721c-0.137 0.182-0.355 0.29-0.583 0.29 0 0-1.315 0-1.32 0-0.502 0-0.86-0.515-0.685-0.986l1.111-2.99h4.264l-2.787 3.685zM48.484 30.011h-1.32c-0.228 0-0.446-0.108-0.583-0.29l-2.788-3.685h4.264c0 0 1.108 2.979 1.111 2.989 0.175 0.472-0.185 0.986-0.685 0.986zM50.22 24.395h-44.44c-2.282 0-4.139-1.857-4.139-4.139v-8.565c0-0.626 0.509-1.135 1.135-1.135h4.298c0.626 0 1.135 0.509 1.135 1.135v7.117c0 0.453 0.367 0.82 0.82 0.82h30.13c0.453 0 0.82-0.367 0.82-0.82s-0.367-0.82-0.82-0.82h-10.338v-1.166c0-2.025 1.648-3.673 3.673-3.673h13.658v4.84h-3.712c-0.453 0-0.82 0.367-0.82 0.82s0.367 0.82 0.82 0.82h4.532c0.453 0 0.82-0.367 0.82-0.82v-7.117c0-0.626 0.509-1.135 1.135-1.135h4.298c0.626 0 1.135 0.509 1.135 1.135v8.565h0c0 2.282-1.857 4.139-4.139 4.139z"></path>
</symbol>
<symbol id="icon-category_other" viewBox="0 0 32 32">
<path d="M31.996 22.334c-0.956-7.667-8.11-8.803-10.129-8.971v-6.963c0-0.048-0.067-4.8-5.867-4.8s-5.867 4.752-5.867 4.8v6.963c-2.019 0.168-9.171 1.303-10.129 8.971 0 0.011-0.004 0.053-0.004 0.066v2.133c0 0.295 0.239 0.533 0.533 0.533h2.667v1.067h-1.6c-0.295 0-0.533 0.239-0.533 0.533 0 1.291 0.78 3.733 3.733 3.733s3.733-2.442 3.733-3.733c0-0.295-0.239-0.533-0.533-0.533h-1.6v-1.067h8v1.067h-1.6c-0.294 0-0.533 0.239-0.533 0.533 0 1.291 0.78 3.733 3.733 3.733s3.733-2.442 3.733-3.733c0-0.295-0.239-0.533-0.533-0.533h-1.6v-1.067h8v1.067h-1.6c-0.294 0-0.533 0.239-0.533 0.533 0 1.291 0.78 3.733 3.733 3.733s3.733-2.442 3.733-3.733c0-0.295-0.239-0.533-0.533-0.533h-1.6v-1.067h2.667c0.294 0 0.533-0.239 0.533-0.533v-2.133c0-0.012 0-0.053-0.004-0.066zM11.2 6.4c0-0.153 0.053-3.733 4.8-3.733 4.714 0 4.8 3.583 4.8 3.733v6.933h-1.067v-3.2h-1.067v3.2h-7.467v-6.933zM6.187 15.434c1.416-0.622 2.935-0.973 4.48-1.035h10.667c1.545 0.062 3.064 0.413 4.48 1.035 2.69 1.113 4.599 3.554 5.033 6.432h-29.693c0.434-2.878 2.344-5.319 5.033-6.432zM4.8 29.333c-1.299 0.098-2.448-0.84-2.611-2.133h5.219c-0.169 1.289-1.312 2.223-2.608 2.133zM5.333 26.133h-1.067v-1.067h1.067v1.067zM16 29.333c-1.3 0.098-2.448-0.84-2.611-2.133h5.219c-0.169 1.289-1.312 2.223-2.608 2.133zM16.533 26.133h-1.067v-1.067h1.067v1.067zM27.2 29.333c-1.3 0.099-2.45-0.839-2.613-2.133h5.221c-0.169 1.289-1.312 2.223-2.608 2.133zM27.733 26.133h-1.067v-1.067h1.067v1.067zM30.933 24h-29.867v-1.067h29.867v1.067z"></path>
<path d="M16 15.467c-1.473 0-2.667 1.194-2.667 2.667s1.194 2.667 2.667 2.667c1.473 0 2.667-1.194 2.667-2.667-0.002-1.472-1.195-2.665-2.667-2.667zM16 19.733c-0.884 0-1.6-0.716-1.6-1.6s0.716-1.6 1.6-1.6c0.884 0 1.6 0.716 1.6 1.6s-0.716 1.6-1.6 1.6z"></path>
<path d="M17.067 18.133c0 0.589-0.478 1.067-1.067 1.067s-1.067-0.478-1.067-1.067c0-0.589 0.478-1.067 1.067-1.067s1.067 0.478 1.067 1.067z"></path>
<path d="M18.667 8h1.067v1.067h-1.067v-1.067z"></path>
<path d="M18.667 6.4v0.533h1.067v-0.533c0-0.273-0.107-2.667-3.733-2.667v1.067c2.475 0 2.667 1.227 2.667 1.6z"></path>
<path d="M11.2 17.6h1.067v1.067h-1.067v-1.067z"></path>
<path d="M9.067 17.6h1.067v1.067h-1.067v-1.067z"></path>
<path d="M19.733 17.6h1.067v1.067h-1.067v-1.067z"></path>
<path d="M21.867 17.6h1.067v1.067h-1.067v-1.067z"></path>
</symbol>
<symbol id="icon-category_products" viewBox="0 0 35 32">
<path d="M35.352 25.028l-0.135-0.728c-0.086-0.465-0.492-0.803-0.966-0.803-0.059 0-0.119 0.005-0.178 0.016l-2.747 0.505 1.244-0.831c0.326-0.218 0.491-0.608 0.42-0.994-0.020-0.106-0.057-0.207-0.11-0.303l-0.376-0.666c-0.129-0.229-0.349-0.399-0.603-0.467-0.124-0.033-0.254-0.041-0.381-0.024 0.139-0.764 0.21-1.545 0.21-2.34 0-0.353-0.212-0.656-0.515-0.791 0.396-0.941 0.423-2.019 0.032-3.006-0.032-0.080-0.079-0.152-0.14-0.213s-0.131-0.107-0.212-0.14c-0.469-0.187-0.962-0.281-1.465-0.281-0.064 0-0.128 0.002-0.192 0.005-0.072-1.446-1.269-2.6-2.73-2.6-0.192 0-0.38 0.020-0.561 0.059 0.126-0.753 0.052-1.541-0.242-2.28-0.032-0.081-0.079-0.154-0.143-0.22-0.062-0.062-0.134-0.11-0.215-0.142-0.505-0.201-1.036-0.303-1.578-0.303-0.816 0-1.597 0.229-2.271 0.656-0.246-0.713-0.652-1.383-1.22-1.952-0.166-0.167-0.387-0.258-0.622-0.258s-0.456 0.092-0.623 0.258l-2.508 2.514c-0.464-0.414-1.075-0.662-1.738-0.662-0.15 0-0.302 0.013-0.451 0.039-0.54 0.094-1.038 0.359-1.419 0.746-0.489-0.236-1.049-0.316-1.587-0.223-0.118 0.021-0.233 0.050-0.345 0.085v-1.937c0-1.334-1.072-2.422-2.399-2.444v-1.099c0.406-0.070 0.716-0.424 0.716-0.85v-2.49c0-0.476-0.387-0.863-0.864-0.863h-4.213c-0.476 0-0.863 0.387-0.863 0.863v2.49c0 0.426 0.31 0.78 0.716 0.85v1.099c-1.326 0.023-2.399 1.11-2.399 2.444v15.121c-1.034 0.934-1.678 2.238-1.678 3.679 0 2.835 2.489 5.142 5.548 5.142l20.736-0.006c0.708-0 1.373-0.311 1.826-0.853 0.441-0.528 0.628-1.213 0.52-1.889l4.142 0.744c0.057 0.010 0.116 0.016 0.174 0.016 0.207 0 0.404-0.063 0.572-0.183 0.215-0.154 0.361-0.392 0.4-0.653l0.112-0.753c0.016-0.108 0.014-0.216-0.005-0.323-0.071-0.385-0.364-0.69-0.747-0.778l-1.46-0.335 2.744-0.504c0.259-0.047 0.483-0.193 0.632-0.409s0.204-0.476 0.157-0.734zM29.429 14.997c0.312 0 0.619 0.049 0.913 0.147 0.263 0.802 0.165 1.668-0.248 2.382h-1.396l0.445-0.446c0.202-0.203 0.202-0.531-0.001-0.733s-0.531-0.202-0.733 0.001l-0.236 0.236c-0.11-0.364-0.303-0.689-0.557-0.956 0.514-0.408 1.145-0.631 1.811-0.631zM26.507 12.401c0.936 0 1.697 0.763 1.697 1.702 0 0.017-0.001 0.035-0.001 0.052-0.546 0.178-1.049 0.474-1.479 0.877-0.068-0.026-0.138-0.050-0.209-0.070-0.152-0.819-0.703-1.475-1.432-1.781 0.302-0.469 0.827-0.78 1.424-0.78zM23.769 9.515c0.352 0 0.698 0.057 1.031 0.17 0.268 0.796 0.213 1.652-0.128 2.393-0.281 0.256-0.508 0.568-0.664 0.92-0.093 0.005-0.185 0.016-0.276 0.031-0.406 0.071-0.785 0.247-1.101 0.502-0.108-0.198-0.24-0.38-0.392-0.544l1.188-1.191c0.202-0.203 0.202-0.531-0.001-0.733s-0.531-0.202-0.733 0.001l-1.299 1.302c-0.247-0.117-0.514-0.198-0.795-0.236 0.121-0.618 0.421-1.201 0.885-1.666 0.611-0.612 1.422-0.949 2.284-0.949zM19.799 17.526h-0.449c-0.076-0.192-0.263-0.329-0.482-0.329s-0.406 0.136-0.482 0.329h-0.528c0.123-0.2 0.098-0.464-0.075-0.637-0.203-0.202-0.531-0.202-0.733 0.001l-0.488 0.489c-0.044 0.044-0.078 0.094-0.102 0.147h-1.054c-0.395-0.606-0.636-1.321-0.664-2.091h8.219c-0.029 0.77-0.27 1.485-0.664 2.091h-1.097c-0.025-0.053-0.059-0.103-0.102-0.147l-0.488-0.489c-0.202-0.202-0.53-0.203-0.733-0.001-0.173 0.173-0.198 0.438-0.075 0.637zM18.594 14.399c0.195-0.724 0.855-1.258 1.638-1.258s1.443 0.534 1.638 1.258h-3.276zM19.653 8.028c0.493 0.533 0.819 1.165 0.978 1.83-0.264 0.287-0.484 0.605-0.658 0.943-0.079-0.048-0.171-0.076-0.27-0.076h-0.69c-0.286 0-0.518 0.232-0.518 0.518s0.232 0.518 0.518 0.518h0.606c-0.034 0.143-0.061 0.288-0.080 0.434-0.206 0.054-0.402 0.131-0.586 0.229-0.345-0.596-0.917-1.040-1.595-1.218-0-0.001-0-0.003-0.001-0.004-0.041-0.234-0.111-0.457-0.208-0.664l2.503-2.509zM10.288 12.703c-0.030-0.085-0.053-0.172-0.069-0.26-0.149-0.857 0.429-1.675 1.287-1.825 0.091-0.016 0.182-0.024 0.273-0.024 0.341 0 0.668 0.109 0.943 0.315 0.114 0.085 0.258 0.12 0.399 0.095s0.264-0.105 0.343-0.224c0.243-0.367 0.615-0.61 1.048-0.686 0.091-0.016 0.183-0.024 0.274-0.024 0.768 0 1.42 0.549 1.551 1.306 0.015 0.087 0.023 0.177 0.023 0.269 0 0.268 0.206 0.492 0.473 0.515 0.579 0.051 1.072 0.415 1.301 0.929-0.306 0.367-0.518 0.816-0.599 1.308h-2.955c-0.367 0-0.683 0.227-0.814 0.548-0.65-0.443-1.416-0.681-2.219-0.681-0.503 0-0.996 0.095-1.465 0.281-0.080 0.032-0.151 0.079-0.211 0.139s-0.109 0.134-0.14 0.213c-0.119 0.301-0.199 0.61-0.242 0.921-0.186-0.211-0.317-0.474-0.368-0.769-0.122-0.703 0.246-1.403 0.895-1.702 0.244-0.113 0.361-0.392 0.271-0.645zM11.832 17.384l0.141 0.142h-1.244c-0.279-0.648-0.322-1.386-0.095-2.078 0.295-0.098 0.602-0.147 0.913-0.147 0.781 0 1.515 0.305 2.068 0.859 0.073 0.074 0.142 0.151 0.206 0.231 0.088 0.397 0.223 0.777 0.397 1.135h-0.781l-0.872-0.874c-0.202-0.203-0.53-0.203-0.733-0.001s-0.203 0.53-0.001 0.733zM9.626 17.526h-1.847c0.082-0.502 0.384-0.93 0.803-1.182 0.248 0.332 0.572 0.601 0.945 0.783 0.026 0.134 0.059 0.268 0.099 0.399zM4.397 1.036h3.868v2.144h-3.868v-2.144zM7.549 4.216v1.084h-2.436v-1.084h2.436zM2.715 9.847h3.364c0.286 0 0.518-0.232 0.518-0.518s-0.232-0.518-0.518-0.518h-3.364v-1.065c0-0.777 0.63-1.409 1.405-1.409h4.423c0.775 0 1.405 0.632 1.405 1.409v1.065h-0.967c-0.286 0-0.518 0.232-0.518 0.518s0.232 0.518 0.518 0.518h0.967v0.46c-0.594 0.582-0.902 1.435-0.75 2.313 0 0.002 0.001 0.004 0.001 0.005-0.831 0.57-1.274 1.584-1.098 2.602 0.010 0.059 0.023 0.118 0.037 0.176-0.259 0.143-0.491 0.327-0.691 0.543h-4.733v-6.099zM2.715 16.982h4.132c-0.055 0.175-0.094 0.356-0.113 0.544h-0.087c-0.477 0-0.865 0.388-0.865 0.866 0 0.823 0.077 1.63 0.225 2.42-0.149-0.012-0.302-0.018-0.457-0.018-0.627 0-1.224 0.099-1.681 0.28-0.699 0.276-0.893 0.668-0.935 0.94-0.074 0.037-0.147 0.076-0.219 0.116v-5.147zM9.275 23.347c0.187 0.149 0.301 0.276 0.367 0.368-0.006 0-0.013 0-0.019 0-0.293 0-0.82-0.118-1.419-0.45-0.223-0.124-0.429-0.263-0.594-0.404-0.193-0.164-0.477-0.164-0.67 0-0.166 0.141-0.371 0.28-0.594 0.403-0.599 0.332-1.126 0.45-1.419 0.45-0.007 0-0.013-0-0.019-0 0.066-0.092 0.18-0.218 0.367-0.368 0.163-0.131 0.232-0.346 0.174-0.547s-0.23-0.348-0.438-0.372c-0.506-0.059-0.825-0.188-0.975-0.282 0.188-0.117 0.662-0.316 1.515-0.316 0.707 0 1.223 0.149 1.471 0.288 0.158 0.088 0.35 0.088 0.507 0 0.248-0.139 0.764-0.288 1.471-0.288 0.853 0 1.327 0.199 1.515 0.316-0.15 0.094-0.469 0.222-0.975 0.282-0.208 0.024-0.38 0.171-0.438 0.372s0.011 0.417 0.174 0.547zM8.239 29.652l0.018 0.096c0.062 0.333 0.192 0.638 0.373 0.904h-3.082c-2.488 0-4.511-1.842-4.511-4.106 0-1.547 0.946-2.897 2.338-3.597 0.16 0.119 0.359 0.222 0.596 0.305-0.094 0.16-0.159 0.332-0.175 0.512-0.020 0.239 0.053 0.466 0.206 0.639 0.203 0.229 0.514 0.345 0.924 0.345 0.547 0 1.266-0.217 1.921-0.58 0.151-0.083 0.294-0.172 0.427-0.264 0.134 0.092 0.276 0.18 0.427 0.264 0.656 0.363 1.374 0.579 1.921 0.58h0c0.411 0 0.722-0.116 0.924-0.345 0.153-0.173 0.227-0.4 0.206-0.639-0.015-0.18-0.081-0.352-0.175-0.512 0.237-0.083 0.436-0.186 0.596-0.305 1.104 0.555 1.927 1.519 2.22 2.666l-3.664 1.392c-1.073 0.408-1.7 1.52-1.492 2.645zM27.315 30.165c-0.256 0.306-0.631 0.481-1.031 0.481l-0.544 0-0.34-1.834c-0.052-0.281-0.322-0.467-0.604-0.415s-0.467 0.322-0.415 0.604l0.305 1.646-1.783 0.001-0.23-1.24c-0.052-0.281-0.322-0.467-0.604-0.415s-0.467 0.322-0.415 0.604l0.195 1.052-4.146 0.002-0.312-1.685c-0.052-0.281-0.322-0.467-0.604-0.415s-0.467 0.322-0.415 0.604l0.277 1.496-6.054 0.002c-0 0-0 0-0 0-0.647 0-1.202-0.459-1.32-1.093l-0.018-0.096c-0.117-0.632 0.236-1.258 0.841-1.488l2.036-0.774 0.152 0.819c0.046 0.249 0.264 0.424 0.509 0.424 0.031 0 0.063-0.003 0.095-0.009 0.281-0.052 0.467-0.322 0.415-0.604l-0.186-1.004 3.023-1.148c0.267-0.102 0.402-0.401 0.3-0.668s-0.401-0.402-0.668-0.3l-1.406 0.534c-0.395-1.397-1.408-2.564-2.752-3.233-0.042-0.271-0.236-0.663-0.935-0.94-0.457-0.181-1.054-0.28-1.681-0.28-0.431 0-0.843 0.048-1.206 0.134v-0.313c0-0.286-0.232-0.518-0.518-0.518-0.121 0-0.232 0.042-0.32 0.111-0.082-0.54-0.127-1.089-0.135-1.646h16.875c0.286 0 0.518-0.232 0.518-0.518s-0.232-0.518-0.518-0.518h-0.212c0.33-0.679 0.516-1.441 0.516-2.246 0-0.457-0.35-0.834-0.795-0.876 0.194-0.183 0.436-0.306 0.706-0.353 0.079-0.014 0.159-0.021 0.239-0.021 0.669 0 1.237 0.479 1.351 1.138 0.013 0.076 0.020 0.155 0.020 0.234 0 0.268 0.206 0.492 0.473 0.515 0.619 0.054 1.126 0.52 1.232 1.132 0.028 0.163 0.025 0.323-0.004 0.477h-0.556c-0.286 0-0.518 0.232-0.518 0.518s0.232 0.518 0.518 0.518h4.027c-0.013 0.95-0.135 1.879-0.364 2.779l-2.808 1.657c-0.172-0.598-0.571-1.105-1.121-1.412-0.617-0.345-1.35-0.399-2.011-0.148l-5.783 2.197c-0.267 0.102-0.402 0.401-0.3 0.668s0.401 0.402 0.668 0.3l0.762-0.289 0.237 1.277c0.046 0.25 0.264 0.424 0.509 0.424 0.031 0 0.063-0.003 0.095-0.009 0.281-0.052 0.467-0.322 0.415-0.604l-0.271-1.462 4.036-1.533c0.374-0.142 0.788-0.112 1.137 0.084s0.589 0.53 0.662 0.921l1.048 5.659c0.072 0.39-0.033 0.789-0.288 1.094zM29.163 26.109c-0.242 0.044-0.419 0.252-0.424 0.498s0.163 0.461 0.402 0.516l3.857 0.885-0.096 0.646-4.472-0.804-0.699-3.774 3.895-2.299 0.324 0.575-3.285 2.196c-0.204 0.137-0.285 0.398-0.192 0.626s0.332 0.359 0.574 0.315l5.161-0.948 0.115 0.62-5.159 0.948z"></path>
</symbol>
<symbol id="icon-category_sport" viewBox="0 0 37 32">
<path d="M35.452 15.446h-2.18c-0.404 0-0.76 0.208-0.968 0.521-1.666-0.174-1.888-0.441-2.068-0.659-0.245-0.296-0.535-0.547-0.864-0.746l-5.009-3.042c-1.020-2.369-2.726-3.851-3.992-4.681-0.493-0.323-0.787-0.871-0.787-1.465 0-0.35 0.103-0.689 0.299-0.98l1.246-1.854c0.248-0.369 0.334-0.812 0.242-1.248s-0.351-0.805-0.727-1.042c-0.26-0.163-0.56-0.25-0.867-0.25h-5.918c-0.307 0-0.607 0.086-0.867 0.25-0.377 0.237-0.635 0.607-0.727 1.042s-0.007 0.878 0.242 1.248l1.246 1.854c0.195 0.291 0.299 0.629 0.299 0.98 0 0.594-0.294 1.142-0.787 1.465-1.876 1.231-6.069 4.857-4.484 11.945 0.884 3.953 1.567 6.74 1.978 8.080h-8.833c-0.729 0-1.366 0.518-1.514 1.231l-0.302 1.449c-0.095 0.458 0.019 0.929 0.314 1.292s0.732 0.571 1.2 0.571h30.393c0.468 0 0.905-0.208 1.2-0.571s0.409-0.834 0.314-1.292l-0.302-1.449c-0.149-0.713-0.786-1.231-1.514-1.231h-8.833c0.123-0.401 0.271-0.934 0.442-1.595h0.581c1.706 0 3.397-0.255 5.027-0.757l3.329-0.42c0.199 0.355 0.579 0.597 1.015 0.597h2.18c0.64 0 1.162-0.521 1.162-1.162v-6.919c0-0.641-0.521-1.162-1.162-1.162zM13.31 1.514c0.032-0.149 0.12-0.276 0.249-0.357 0.089-0.056 0.192-0.086 0.297-0.086h5.918c0.105 0 0.208 0.030 0.297 0.086 0.129 0.081 0.218 0.208 0.249 0.357s0.002 0.301-0.083 0.427l-0.616 0.917h-5.613l-0.616-0.917c-0.085-0.126-0.114-0.278-0.083-0.427zM13.847 7.734c0.796-0.522 1.272-1.405 1.272-2.361 0-0.511-0.138-1.006-0.397-1.443h4.187c-0.26 0.437-0.397 0.932-0.397 1.443 0 0.956 0.475 1.839 1.271 2.361 0.328 0.215 0.689 0.479 1.058 0.795h-8.049c0.375-0.322 0.737-0.586 1.055-0.795zM32.176 28.313l0.302 1.449c0.040 0.193-0.043 0.331-0.097 0.397s-0.172 0.175-0.369 0.175h-30.393c-0.197 0-0.316-0.11-0.369-0.175s-0.137-0.204-0.097-0.397l0.302-1.449c0.046-0.219 0.242-0.378 0.465-0.378h29.789c0.224 0 0.42 0.159 0.466 0.378zM21.752 26.864h-9.874c-0.221-0.658-0.781-2.611-2.057-8.314-0.538-2.405-0.409-4.582 0.38-6.487h1.973c0.296 0 0.536-0.24 0.536-0.536s-0.24-0.536-0.536-0.536h-1.442c0.303-0.521 0.639-0.983 0.988-1.39h10.194c0.35 0.408 0.686 0.87 0.986 1.39h-8.58c-0.296 0-0.536 0.24-0.536 0.536s0.24 0.536 0.536 0.536h7.099c-0.137 0.333-0.164 0.7-0.077 1.057 0.11 0.446 0.386 0.822 0.778 1.059l0.921 0.559h-5.954c-0.946 0-1.712 0.727-1.745 1.656-0.009 0.247 0.034 0.487 0.124 0.709h-0.549c-0.471 0-0.91 0.186-1.237 0.525s-0.498 0.784-0.48 1.255c0.026 0.736 0.513 1.345 1.184 1.567-0.106 0.223-0.166 0.473-0.166 0.736 0 0.947 0.771 1.718 1.718 1.718h0.812c-0.081 0.2-0.126 0.418-0.126 0.647 0 0.948 0.771 1.718 1.718 1.718h3.872c-0.225 0.852-0.37 1.329-0.46 1.595zM28.747 23.454c-0.032 0.004-0.062 0.011-0.092 0.020-1.541 0.48-3.14 0.723-4.754 0.723h-5.561c-0.357 0-0.647-0.29-0.647-0.647s0.29-0.647 0.647-0.647h3.511c0.296 0 0.536-0.24 0.536-0.536s-0.24-0.536-0.536-0.536h-5.915c-0.357 0-0.647-0.29-0.647-0.647s0.29-0.647 0.647-0.647h5.915c0.296 0 0.536-0.24 0.536-0.536s-0.24-0.536-0.536-0.536h-6.907c-0.36 0-0.662-0.279-0.675-0.623-0.006-0.177 0.058-0.346 0.181-0.473s0.288-0.198 0.466-0.198h6.935c0.296 0 0.536-0.24 0.536-0.536s-0.24-0.536-0.536-0.536h-4.792c-0.177 0-0.343-0.070-0.466-0.198s-0.187-0.295-0.181-0.473c0.012-0.343 0.315-0.623 0.675-0.623h7.384c0.304 0 0.564-0.197 0.646-0.49s-0.038-0.597-0.298-0.754l-2.144-1.302c-0.148-0.090-0.252-0.231-0.293-0.399s-0.015-0.341 0.075-0.489c0.185-0.305 0.583-0.403 0.888-0.219l5.47 3.322c0.226 0.137 0.425 0.31 0.594 0.514 0.438 0.529 1.001 0.847 2.7 1.033v6.006l-3.363 0.424zM35.542 23.527c0 0.050-0.041 0.090-0.090 0.090h-2.18c-0.050 0-0.090-0.041-0.090-0.090v-6.92c0-0.050 0.040-0.090 0.090-0.090h2.18c0.050 0 0.090 0.040 0.090 0.090v6.92z"></path>
</symbol>
<symbol id="icon-category_technics" viewBox="0 0 32 32">
<path d="M31.254 3.845c-0.211-0.049-0.433 0.015-0.585 0.168l-2.591 2.612h-1.242l-1.367-1.417v-1.26l2.554-2.592c0.151-0.153 0.213-0.374 0.163-0.584s-0.204-0.378-0.408-0.447c-0.642-0.216-1.313-0.326-1.996-0.326-2.036 0-3.885 0.949-5.074 2.604-1.113 1.549-1.456 3.448-0.964 5.265l-4.604 4.604-7.67-7.688v-1.509c0-0.219-0.115-0.423-0.303-0.536l-4.419-2.652c-0.246-0.148-0.561-0.109-0.763 0.094l-1.768 1.767c-0.203 0.203-0.241 0.518-0.094 0.764l2.651 4.419c0.113 0.188 0.316 0.303 0.536 0.303l1.508 0 7.671 7.688-4.586 4.586c-1.817-0.491-3.717-0.148-5.267 0.966-1.654 1.188-2.603 3.037-2.603 5.073 0 0.683 0.11 1.354 0.326 1.996 0.069 0.205 0.24 0.36 0.451 0.409s0.433-0.015 0.585-0.168l2.591-2.611h1.249l1.423 1.423v1.249l-2.611 2.591c-0.154 0.153-0.218 0.374-0.168 0.585s0.204 0.382 0.409 0.451c0.641 0.216 1.313 0.326 1.996 0.326 2.036 0 3.884-0.949 5.073-2.603 1.114-1.55 1.457-3.45 0.966-5.267l3.683-3.683 0.844 0.916-0.387 0.387c-0.244 0.244-0.244 0.64 0 0.884s0.64 0.244 0.884 0l0.351-0.351 7.916 8.599c0.006 0.006 0.012 0.012 0.018 0.019 1.465 1.465 3.838 1.465 5.304-0 1.461-1.462 1.461-3.841 0-5.303-0.006-0.006-0.013-0.012-0.020-0.019l-8.613-7.901 0.347-0.347c0.244-0.244 0.244-0.64 0-0.884s-0.64-0.244-0.884 0l-0.384 0.385-0.918-0.843 3.701-3.701c0.526 0.141 1.069 0.212 1.619 0.212 3.446 0 6.25-2.804 6.25-6.25 0-0.683-0.11-1.354-0.326-1.996-0.069-0.205-0.24-0.36-0.451-0.409zM5.518 6.371c-0.117-0.117-0.276-0.177-0.442-0.177l-1.414-0-2.218-3.704 1.077-1.077 3.697 2.219v1.414c0 0.166 0.066 0.324 0.183 0.441l7.854 7.871-0.884 0.884-7.853-7.87zM21.416 18.562l8.642 7.928c0.965 0.976 0.962 2.555-0.009 3.527-0.974 0.974-2.55 0.977-3.527 0.009l-7.942-8.627 2.837-2.836zM20.494 17.716l-2.762 2.762-0.844-0.916 2.688-2.688 0.918 0.843zM25.78 11.25c-0.547 0-1.084-0.088-1.597-0.261-0.225-0.075-0.473-0.017-0.641 0.15-3.133 3.133-9.885 9.884-12.371 12.371-0.168 0.168-0.226 0.416-0.15 0.642 0.52 1.543 0.271 3.188-0.682 4.515-0.95 1.323-2.429 2.082-4.057 2.082-0.183 0-0.365-0.010-0.545-0.029l1.985-1.97c0.118-0.117 0.185-0.277 0.185-0.444v-1.768c0-0.166-0.066-0.325-0.183-0.442l-1.789-1.789c-0.117-0.117-0.276-0.183-0.442-0.183h-1.768c-0.167 0-0.326 0.067-0.444 0.185l-1.97 1.985c-0.020-0.18-0.029-0.362-0.029-0.545 0-1.628 0.759-3.107 2.082-4.057 1.327-0.953 2.972-1.202 4.515-0.682 0.225 0.076 0.473 0.018 0.641-0.15 0.034-0.034 12.362-12.362 12.371-12.371 0.168-0.168 0.226-0.416 0.15-0.641-0.52-1.543-0.272-3.188 0.681-4.514 0.951-1.324 2.43-2.083 4.059-2.083 0.188 0 0.376 0.010 0.561 0.031l-1.944 1.973c-0.115 0.117-0.18 0.274-0.18 0.438v1.768c0 0.162 0.063 0.318 0.175 0.434l1.727 1.789c0.118 0.122 0.28 0.191 0.45 0.191h1.768c0.166 0 0.326-0.066 0.444-0.185l1.97-1.985c0.020 0.18 0.029 0.362 0.029 0.545 0 2.757-2.243 5-5 5z"></path>
</symbol>
<symbol id="icon-category_transport" viewBox="0 0 41 32">
<path d="M39.17 11.953l-0.888-0.94-3.115-8.398c-0.531-1.419-1.888-2.358-3.403-2.367h-22.252c-1.514 0-2.872 0.949-3.403 2.367l-3.072 8.293-1.279 1.184c-1.114 0.948-1.758 2.341-1.758 3.803v12.236c0.009 2.002 1.636 3.62 3.638 3.62h2.297c2.002 0 3.629-1.619 3.638-3.62v-1.775h21.582v1.775c0.009 2.002 1.636 3.62 3.638 3.62h2.297c2.002 0 3.629-1.619 3.638-3.62v-12.558c-0.009-1.366-0.566-2.672-1.558-3.62zM7.745 3.207c0.278-0.74 0.983-1.218 1.767-1.218h22.261c0.783 0 1.488 0.487 1.767 1.218l2.715 7.31h-2.028c-0.479-3.263-3.516-5.517-6.779-5.030-2.602 0.383-4.647 2.428-5.030 5.030h-17.387l2.715-7.31zM32.451 10.517h-8.276c0.479-2.289 2.724-3.751 5.013-3.272 1.636 0.348 2.915 1.627 3.263 3.272zM7.832 28.131c-0.009 1.044-0.853 1.88-1.897 1.88h-2.297c-1.044 0-1.888-0.835-1.897-1.88v-2.28c0.522 0.339 1.21 0.505 1.897 0.505h4.195v1.775zM38.987 28.131c-0.009 1.044-0.853 1.88-1.897 1.88h-2.297c-1.044 0-1.888-0.844-1.897-1.88v-1.775h4.195c0.688 0 1.375-0.165 1.897-0.505v2.28zM37.090 24.615h-33.452c-1.036 0.009-1.888-0.818-1.897-1.862v-6.858c0-0.957 0.426-1.871 1.157-2.489 0.009-0.009 0.026-0.026 0.035-0.035l1.184-1.114h32.956l0.835 0.896c0.009 0.017 0.035 0.026 0.044 0.043 0.653 0.618 1.027 1.479 1.027 2.376v7.18h0.009c-0.009 1.036-0.862 1.871-1.897 1.862z"></path>
</symbol>
<symbol id="icon-icon-category_additional_income" viewBox="0 0 32 32">
<path d="M11.67 19.346c0-0.259-0.21-0.469-0.469-0.469h-4.546c-0.259 0-0.469 0.21-0.469 0.469v3.030c0 0.259 0.21 0.469 0.469 0.469h4.546c0.259 0 0.469-0.21 0.469-0.469v-3.030zM10.733 21.908h-3.608v-2.093h3.608v2.093z"></path>
<path d="M22.819 21.835h2.525c0.259 0 0.469-0.21 0.469-0.469s-0.21-0.469-0.469-0.469h-2.525c-0.259 0-0.469 0.21-0.469 0.469s0.21 0.469 0.469 0.469z"></path>
<path d="M22.819 19.815h2.525c0.259 0 0.469-0.21 0.469-0.469s-0.21-0.469-0.469-0.469h-2.525c-0.259 0-0.469 0.21-0.469 0.469s0.21 0.469 0.469 0.469z"></path>
<path d="M27.364 24.402c-0.259 0-0.469 0.21-0.469 0.469v6.029c0 0.090-0.073 0.163-0.163 0.163h-21.466c-0.090 0-0.163-0.073-0.163-0.163v-10.373c0-0.259-0.21-0.469-0.469-0.469s-0.469 0.21-0.469 0.469v10.373c0 0.607 0.494 1.1 1.1 1.1h21.466c0.607 0 1.1-0.494 1.1-1.1v-6.029c0-0.259-0.21-0.469-0.469-0.469z"></path>
<path d="M26.733 15.91h-7.739v-2.378c2.422-1.131 4.104-3.59 4.104-6.435 0-3.914-3.184-7.098-7.098-7.098-1.358 0-2.679 0.385-3.818 1.113-1.109 0.709-1.998 1.708-2.571 2.89-0.113 0.233-0.016 0.513 0.217 0.626s0.513 0.016 0.626-0.217c1.040-2.144 3.165-3.475 5.546-3.475 3.397 0 6.16 2.764 6.16 6.16s-2.764 6.16-6.16 6.16c-3.397 0-6.16-2.764-6.16-6.16 0-0.239 0.014-0.481 0.041-0.717 0.030-0.257-0.155-0.49-0.412-0.52s-0.49 0.154-0.52 0.412c-0.031 0.272-0.047 0.55-0.047 0.825 0 2.845 1.682 5.303 4.104 6.435v2.378h-7.739c-0.607 0-1.1 0.494-1.1 1.1v1.318c0 0.259 0.21 0.469 0.469 0.469s0.469-0.21 0.469-0.469v-1.318c0-0.090 0.073-0.163 0.163-0.163h6.101l4.279 4.891c0.089 0.102 0.218 0.16 0.353 0.16s0.264-0.058 0.353-0.16l4.279-4.891h6.101c0.090 0 0.163 0.073 0.163 0.163v5.66c0 0.259 0.21 0.469 0.469 0.469s0.469-0.21 0.469-0.469v-5.66c-0-0.607-0.494-1.1-1.1-1.1zM16 20.718l-3.386-3.87h0.861c0.259 0 0.469-0.21 0.469-0.469v-2.487c0.651 0.198 1.342 0.304 2.057 0.304s1.405-0.107 2.057-0.304v2.487c0 0.259 0.21 0.469 0.469 0.469h0.861l-3.386 3.87z"></path>
<path d="M6.656 27.454h1.263c0.259 0 0.469-0.21 0.469-0.469s-0.21-0.469-0.469-0.469h-1.263c-0.259 0-0.469 0.21-0.469 0.469s0.21 0.469 0.469 0.469z"></path>
<path d="M11.202 26.517h-1.263c-0.259 0-0.469 0.21-0.469 0.469s0.21 0.469 0.469 0.469h1.263c0.259 0 0.469-0.21 0.469-0.469s-0.21-0.469-0.469-0.469z"></path>
<path d="M14.485 27.454c0.259 0 0.469-0.21 0.469-0.469s-0.21-0.469-0.469-0.469h-1.263c-0.259 0-0.469 0.21-0.469 0.469s0.21 0.469 0.469 0.469h1.263z"></path>
<path d="M17.768 27.454c0.259 0 0.469-0.21 0.469-0.469s-0.21-0.469-0.469-0.469h-1.263c-0.259 0-0.469 0.21-0.469 0.469s0.21 0.469 0.469 0.469h1.263z"></path>
<path d="M6.656 29.98h5.051c0.259 0 0.469-0.21 0.469-0.469s-0.21-0.469-0.469-0.469h-5.051c-0.259 0-0.469 0.21-0.469 0.469s0.21 0.469 0.469 0.469z"></path>
<path d="M19.824 28.248c0 0.955 0.777 1.731 1.732 1.731 0.498 0 0.947-0.211 1.263-0.549 0.316 0.337 0.765 0.549 1.263 0.549 0.955 0 1.731-0.777 1.731-1.731s-0.777-1.732-1.731-1.732c-0.498 0-0.947 0.211-1.263 0.549-0.316-0.337-0.765-0.549-1.263-0.549-0.955 0-1.732 0.777-1.732 1.732zM24.081 27.454c0.438 0 0.794 0.356 0.794 0.794s-0.356 0.794-0.794 0.794-0.794-0.356-0.794-0.794c0-0.438 0.356-0.794 0.794-0.794zM22.35 28.248c0 0.438-0.356 0.794-0.794 0.794s-0.794-0.356-0.794-0.794c0-0.438 0.356-0.794 0.794-0.794s0.794 0.356 0.794 0.794z"></path>
<path d="M14.447 9.551c-0.216-0.142-0.507-0.081-0.649 0.136s-0.081 0.507 0.136 0.649c0.606 0.396 1.020 0.514 1.555 0.543v0.517c0 0.259 0.21 0.469 0.469 0.469s0.469-0.21 0.469-0.469v-0.554c1.063-0.207 1.683-1.082 1.82-1.9 0.176-1.050-0.373-1.962-1.399-2.325-0.138-0.049-0.28-0.1-0.422-0.154v-2.248c0.358 0.084 0.571 0.265 0.589 0.281 0.19 0.173 0.485 0.16 0.659-0.030 0.176-0.19 0.164-0.487-0.027-0.662-0.027-0.025-0.48-0.433-1.222-0.543v-0.462c0-0.259-0.21-0.469-0.469-0.469s-0.469 0.21-0.469 0.469v0.497c-0.071 0.016-0.144 0.034-0.218 0.056-0.676 0.204-1.181 0.782-1.318 1.509-0.125 0.663 0.087 1.302 0.554 1.668 0.248 0.195 0.557 0.373 0.981 0.562v2.848c-0.37-0.026-0.623-0.116-1.042-0.389zM15.086 5.794c-0.19-0.149-0.271-0.439-0.211-0.757 0.054-0.286 0.244-0.63 0.614-0.767v1.781c-0.152-0.082-0.289-0.167-0.403-0.257zM16.535 7.502c0.878 0.311 0.824 1.063 0.787 1.286-0.073 0.437-0.378 0.9-0.896 1.082v-2.407c0.036 0.013 0.072 0.026 0.109 0.039z"></path>
</symbol>
<symbol id="icon-icon-category_salary" viewBox="0 0 32 32">
<path d="M15.413 12.95c-0.109-0.039-0.22-0.079-0.331-0.12v-2.017c0.368 0.146 0.626 0.35 0.637 0.358 0.266 0.218 0.658 0.18 0.878-0.085s0.183-0.66-0.083-0.88c-0.037-0.030-0.617-0.502-1.431-0.701v-0.306c0-0.345-0.28-0.625-0.625-0.625s-0.625 0.28-0.625 0.625v0.277c-0.066 0.014-0.133 0.030-0.2 0.050-0.719 0.216-1.237 0.822-1.388 1.62-0.146 0.775 0.107 1.549 0.644 1.97 0.245 0.192 0.544 0.368 0.944 0.552v2.643c-0.283-0.040-0.495-0.136-0.833-0.357-0.289-0.189-0.676-0.108-0.865 0.181s-0.108 0.676 0.181 0.865c0.594 0.388 1.012 0.525 1.518 0.568v0.389c0 0.345 0.28 0.625 0.625 0.625s0.625-0.28 0.625-0.625v-0.448c1.040-0.264 1.706-1.151 1.853-2.027 0.189-1.126-0.422-2.144-1.522-2.532zM13.832 12.254c-0.062-0.040-0.12-0.080-0.172-0.121-0.169-0.132-0.245-0.443-0.187-0.755 0.020-0.105 0.1-0.415 0.359-0.58v1.456zM15.702 15.275c-0.057 0.34-0.268 0.696-0.62 0.898v-2.012c0.678 0.285 0.661 0.869 0.62 1.114z"></path>
<path d="M29.594 13.353l-3.969-2.621v-10.107c0-0.345-0.28-0.625-0.625-0.625h-15c-0.345 0-0.625 0.28-0.625 0.625v2.375h-2.375c-0.345 0-0.625 0.28-0.625 0.625v7.107l-3.969 2.621c-0.175 0.116-0.281 0.312-0.281 0.521v17.5c0 0.345 0.28 0.625 0.625 0.625h10.438c0.345 0 0.625-0.28 0.625-0.625s-0.28-0.625-0.625-0.625h-8.929l9.112-9.112 2.284 1.509c0.104 0.069 0.224 0.103 0.344 0.103s0.24-0.035 0.344-0.103l2.285-1.509 9.112 9.112h-8.929c-0.345 0-0.625 0.28-0.625 0.625s0.28 0.625 0.625 0.625h10.438c0.345 0 0.625-0.28 0.625-0.625v-17.5c0-0.21-0.105-0.406-0.28-0.522zM28.116 13.875l-2.491 1.645v-3.29l2.491 1.645zM10.625 1.25h13.75v15.095l-1.75 1.156v-13.876c0-0.345-0.28-0.625-0.625-0.625h-11.375v-1.75zM6.375 12.23v3.29l-2.491-1.645 2.491-1.645zM3.375 29.866v-14.829l8.931 5.898-8.931 8.931zM16 21.876l-8.375-5.531v-12.095h13.75v14.077l-5.375 3.55zM28.625 15.037v14.829l-8.931-8.931 8.931-5.898z"></path>
<path d="M16 30.75c-0.164 0-0.326 0.067-0.442 0.183s-0.183 0.277-0.183 0.442c0 0.164 0.067 0.326 0.183 0.442s0.277 0.183 0.442 0.183 0.326-0.067 0.442-0.183c0.116-0.116 0.183-0.277 0.183-0.442s-0.067-0.326-0.183-0.442c-0.116-0.116-0.277-0.183-0.442-0.183z"></path>
</symbol>
<symbol id="icon-chart" viewBox="0 0 32 32">
<path fill="#52555f" style="fill: var(--color4, #52555f)" d="M0 9.6h6.857v22.4h-6.857v-22.4zM12.8 0h6.4v32h-6.4v-32zM25.6 18.286h6.4v13.714h-6.4v-13.714z"></path>
</symbol>
<symbol id="icon-goback-button" viewBox="0 0 32 32">
<path fill="#ff751d" style="fill: var(--color3, #ff751d)" d="M28 14.667h-18.893l4.773-4.787-1.88-1.88-8 8 8 8 1.88-1.88-4.773-4.787h18.893v-2.667z"></path>
</symbol>
<symbol id="icon-google" viewBox="0 0 30 32">
<path fill="#2196f3" style="fill: var(--color5, #2196f3)" d="M29.741 13.862c0.132 0 0.238 0.109 0.238 0.244v2.562c0 0.959-0.087 1.896-0.254 2.806-1.29 7.064-7.368 12.403-14.652 12.352-8.174-0.058-14.715-6.821-14.697-15.192 0.018-8.356 6.638-15.124 14.801-15.124 3.999 0 7.628 1.625 10.292 4.264 0.096 0.095 0.099 0.252 0.004 0.349l-3.539 3.624c-0.091 0.093-0.238 0.096-0.332 0.005-1.672-1.63-3.934-2.631-6.426-2.631-5.144 0-9.286 4.212-9.321 9.48-0.035 5.303 4.152 9.612 9.321 9.612 4.194 0 7.742-2.838 8.912-6.74h-8.673c-0.132 0-0.238-0.109-0.238-0.244v-5.124c0-0.135 0.107-0.244 0.238-0.244l14.325 0z"></path>
<path fill="#1e88e5" style="fill: var(--color6, #1e88e5)" d="M29.741 13.862h-1.787c0.132 0 0.238 0.109 0.238 0.244v2.562c0 0.959-0.087 1.896-0.254 2.806-1.231 6.739-6.819 11.908-13.655 12.325 0.262 0.016 0.525 0.025 0.79 0.027 7.284 0.052 13.362-5.287 14.652-12.351 0.167-0.909 0.254-1.847 0.254-2.806v-2.562c0-0.135-0.107-0.244-0.238-0.244z"></path>
<path fill="#f44336" style="fill: var(--color7, #f44336)" d="M6.711 12.67l-4.495-3.326c2.522-4.671 7.382-7.834 12.962-7.834 3.999 0 7.628 1.625 10.292 4.264 0.096 0.095 0.099 0.252 0.004 0.349l-3.539 3.624c-0.091 0.093-0.238 0.096-0.331 0.005-1.672-1.63-3.935-2.631-6.426-2.631-3.754 0-6.99 2.273-8.467 5.548z"></path>
<path fill="#e53935" style="fill: var(--color8, #e53935)" d="M5.413 11.71l1.298 0.96c1.348-2.99 4.162-5.143 7.497-5.496 0.025-0.003 0.049-0.006 0.075-0.009-0.294-0.029-0.591-0.043-0.892-0.043-3.391 0-6.347 1.831-7.978 4.588z"></path>
<path fill="#e53935" style="fill: var(--color8, #e53935)" d="M23.683 5.774c0.096 0.095 0.099 0.252 0.004 0.349l-2.873 2.942c0.275 0.214 0.539 0.444 0.789 0.687 0.093 0.091 0.241 0.089 0.332-0.005l3.539-3.624c0.094-0.097 0.092-0.254-0.004-0.349-2.664-2.639-6.293-4.264-10.292-4.264-0.3 0-0.598 0.010-0.894 0.028 3.645 0.222 6.935 1.795 9.399 4.236z"></path>
<path fill="#4caf50" style="fill: var(--color9, #4caf50)" d="M26.035 26.969c-2.703 2.987-6.567 4.857-10.858 4.857-5.795 0-10.812-3.41-13.241-8.379l4.589-3.221c1.377 3.509 4.732 5.988 8.652 5.988 2.46 0 4.697-0.976 6.363-2.57l4.495 3.326z"></path>
<path fill="#43a047" style="fill: var(--color10, #43a047)" d="M6.526 20.226l-1.353 0.95c1.572 2.999 4.663 5.038 8.218 5.038 0.301 0 0.598-0.015 0.891-0.043-3.53-0.345-6.486-2.705-7.757-5.944z"></path>
<path fill="#43a047" style="fill: var(--color10, #43a047)" d="M15.178 31.826c4.29 0 8.155-1.87 10.858-4.857l-1.101-0.815c-2.538 3.235-6.345 5.381-10.648 5.644 0.295 0.018 0.592 0.028 0.891 0.028z"></path>
<path fill="#ffc107" style="fill: var(--color11, #ffc107)" d="M5.856 16.668c0 1.258 0.238 2.459 0.669 3.559l-4.589 3.221c-0.998-2.040-1.56-4.342-1.56-6.779 0-2.656 0.667-5.153 1.839-7.324l4.495 3.326c-0.549 1.216-0.855 2.57-0.855 3.998z"></path>
<path fill="#ffb300" style="fill: var(--color12, #ffb300)" d="M5.172 21.176l1.353-0.95c-0.432-1.1-0.669-2.301-0.669-3.559 0-1.427 0.306-2.782 0.855-3.998l-1.298-0.96c-0.843 1.425-1.332 3.097-1.344 4.892-0.011 1.655 0.389 3.214 1.103 4.574z"></path>
</symbol>
<symbol id="icon-kapusta_05x" viewBox="0 0 18 32">
<path fill="#dfe2eb" style="fill: var(--color2, #dfe2eb)" d="M14.866 0c1.429-0 2.831 0.309 4.196 0.927 1.574 0.713 3.086 1.589 4.494 2.602 0.062 0.044 0.12 0.091 0.174 0.141l1.514-1.219c0.105-0.085 0.252-0.094 0.367-0.024 0.052 0.032 1.298 0.802 2.352 2.033 1.058 1.235 1.522 2.448 1.541 2.499 0.042 0.111 0.019 0.236-0.060 0.325l-0.931 1.053c-0.023 0.026-0.049 0.047-0.077 0.063 0.476 0.926 1.114 2.65 1.345 5.488 0.204 2.513-0.114 4.574-0.945 6.125-0.044 0.083-0.11 0.219-0.181 0.366-0.122 0.251-0.248 0.511-0.334 0.653-0.085 0.14-0.179 0.301-0.282 0.48-0.801 1.387-2.292 3.967-5.698 5.934-2.887 1.667-4.323 1.84-5.591 1.993-0.754 0.091-1.405 0.17-2.281 0.562-2.229 0.998-2.675 1.814-2.679 1.823-0.043 0.081-0.119 0.143-0.208 0.165s-0.184 0.008-0.26-0.044c-0.234-0.162-1.399-1.009-1.412-1.828-0.006-0.397 0.131-0.669 0.232-0.867 0.103-0.203 0.099-0.208 0.056-0.266-0.047-0.062-0.132-0.096-0.267-0.147-0.322-0.121-0.808-0.304-0.831-1.244-0.018-0.749 0.377-1.167 0.698-1.47-0.635-0.317-2.264-1.183-3.557-2.316-0.835-0.732-1.489-1.588-1.892-2.177-0.307-0.449-0.492-0.746-0.597-0.949-0.412 0.223-0.692 0.319-0.909 0.394-0.255 0.087-0.396 0.136-0.617 0.341-0.735 0.682-1.935 0.146-2.080 0.045-0.082-0.057-0.135-0.146-0.146-0.245-0.020-0.183 0.084-0.297 0.275-0.503 0.316-0.342 0.974-1.055 1.29-2.264 0.283-1.084 0.224-2.343 0.172-3.453-0.033-0.701-0.064-1.364-0.001-1.887 0.206-1.712 0.636-5.274 3.261-8.201 1.255-1.4 2.831-2.623 4.461-3.481 0.028-0.022 0.060-0.038 0.093-0.049 0.402-0.208 0.807-0.393 1.211-0.553 1.385-0.549 2.755-0.824 4.102-0.824zM16.622 0.82c-2.388-0.448-4.714 0.089-6.74 1.114-0.14 0.286-0.547 1.244-0.517 2.693 0.036 1.707 0.331 2.246 0.334 2.251 0.086 0.151 0.037 0.347-0.112 0.436s-0.341 0.046-0.433-0.101c-0.040-0.063-0.389-0.672-0.428-2.572-0.020-0.943 0.128-1.696 0.288-2.227-1.376 0.823-2.583 1.856-3.538 2.921-0.496 0.553-0.909 1.131-1.255 1.716 0.117 0.286 0.38 1.113 0.237 2.502-0.167 1.617-0.228 2.5-0.228 2.508-0.012 0.176-0.167 0.308-0.341 0.297-0.176-0.012-0.309-0.165-0.297-0.341 0.001-0.009 0.063-0.9 0.23-2.53 0.073-0.712 0.029-1.253-0.038-1.626-1.022 2.092-1.271 4.156-1.411 5.324-0.057 0.47-0.027 1.107 0.005 1.78 0.054 1.157 0.116 2.468-0.192 3.645-0.329 1.259-0.977 2.031-1.352 2.442 0.298 0.078 0.718 0.119 0.96-0.107 0.32-0.297 0.563-0.381 0.844-0.477 0.266-0.091 0.596-0.204 1.172-0.56 0.531-0.329 0.544-0.759 0.52-1.435-0.016-0.447-0.033-0.954 0.228-1.402 0.456-0.783 1.012-0.603 1.379-0.485 0.199 0.064 0.372 0.12 0.552 0.078 0.017-0.138-0.101-0.526-0.189-0.814-0.202-0.662-0.478-1.569-0.328-2.484 0.084-0.511 0.237-0.824 0.482-0.984 0.286-0.187 0.591-0.109 0.836-0.046 0.322 0.083 0.384 0.075 0.477-0.059 0.354-0.512 0.452-0.98 0.589-1.627 0.058-0.273 0.123-0.582 0.216-0.93 0.145-0.543 0.424-0.924 0.829-1.13 0.615-0.313 1.502-0.227 2.788 0.271 1.085 0.42 2.072 0.517 2.709 0.524 0.003 0 0.007 0 0.010 0 0.278 0 0.529-0.13 0.804-0.333 1.845-1.771 3.878-2.77 5.88-2.861 0.387-0.017 0.794-0.003 1.207 0.035 0.45-0.113 0.721-0.461 0.832-0.794 0.138-0.414 0.092-0.995-0.448-1.385-1.374-0.989-2.849-1.844-4.384-2.539-0.464-0.21-0.929-0.378-1.392-0.507-0.204 0.154-1.149 0.904-2.020 2.198 0.067 0.153 0.461 1.076 0.508 1.895 0.024 0.408 0.037 0.933-0.031 1.115l-0.598-0.225c0 0-0.004 0.007-0.008 0.026 0.002-0.007 0.040-0.188-0-0.879-0.025-0.429-0.169-0.913-0.29-1.252-0.972 1.686-1.115 2.287-1.116 2.293-0.039 0.171-0.208 0.28-0.379 0.244s-0.281-0.203-0.247-0.375c0.014-0.070 0.169-0.734 1.267-2.62 0.745-1.279 1.611-2.15 2.128-2.604zM28.833 7.012c-0.163-0.366-0.599-1.252-1.355-2.134s-1.637-1.525-2.014-1.781l-1.196 0.963c0.438 0.337 1.141 0.884 1.59 1.27 1.186 1.020 2.041 2.194 2.076 2.244 0.015 0.020 0.027 0.042 0.036 0.064 0.037 0.049 0.083 0.114 0.137 0.195l0.725-0.821zM26.706 7.077c-0.337-0.382-0.774-0.84-1.265-1.262-0.3-0.258-0.728-0.599-1.107-0.895 0.014 0.235-0.017 0.477-0.097 0.716-0.093 0.282-0.244 0.526-0.436 0.723 1.101 0.185 2.16 0.482 2.904 0.718zM27.446 8.005c-0.438-0.16-2.614-0.928-4.616-1.13-0.125 0.023-0.255 0.033-0.387 0.031-0.618-0.011-1.208 0.033-1.754 0.132-2.004 0.367-3.311 1.465-4.091 2.122-0.137 0.116-0.261 0.219-0.371 0.305-0.035 0.027-0.070 0.054-0.105 0.081-0.552 0.534-1.088 1.141-1.601 1.818-2.028 2.677-1.902 3.957-1.842 4.572l0.009 0.089c0.014 0.159 0.103 0.447 0.198 0.752 0.245 0.793 0.582 1.878 0.264 2.679-0.293 0.739-1.040 0.806-1.761 0.87-0.518 0.046-1.053 0.094-1.47 0.371-0.894 0.594-0.444 2.122-0.036 2.931 0.161 0.32 0.359 0.56 0.534 0.772 0.3 0.363 0.61 0.739 0.468 1.306-0.091 0.362-0.341 0.596-0.583 0.822-0.307 0.287-0.573 0.535-0.56 1.048 0.012 0.508 0.156 0.562 0.416 0.66 0.175 0.066 0.392 0.147 0.553 0.362 0.286 0.381 0.123 0.704 0.003 0.94-0.086 0.169-0.167 0.329-0.163 0.567 0.004 0.3 0.468 0.786 0.885 1.123 0.325-0.381 1.084-1.056 2.774-1.813 0.965-0.432 1.694-0.52 2.465-0.613 1.207-0.146 2.574-0.311 5.348-1.912 3.258-1.881 4.639-4.271 5.464-5.7 0.106-0.184 0.202-0.349 0.29-0.493 0.070-0.115 0.2-0.383 0.304-0.598 0.076-0.156 0.146-0.3 0.193-0.389 0.715-1.336 1.019-3.101 0.905-5.254-0.479 1.613-1.456 4.012-3.39 6.241-3.242 3.737-9.542 5.776-9.809 5.861-0.169 0.053-0.348-0.040-0.401-0.208s0.039-0.348 0.207-0.402c0.061-0.019 5.787-1.874 9.036-5.149-0.63-0.208-2.091-0.623-3.108-0.391-0.418 0.096-0.779 0.186-1.098 0.266-0.789 0.198-1.359 0.342-2.030 0.368-0.004 0-0.009 0-0.013 0-0.171 0-0.313-0.135-0.319-0.308-0.007-0.177 0.13-0.326 0.307-0.332 0.576-0.023 1.095-0.147 1.792-0.322l-0.623-0.598c-0.127-0.123-0.132-0.325-0.009-0.453s0.325-0.132 0.452-0.009l0.914 0.878c0.153-0.037 0.314-0.075 0.485-0.114 1.391-0.317 3.349 0.363 3.727 0.502 0.003-0.003 0.005-0.006 0.008-0.009 1.038-1.196 1.791-2.455 2.333-3.604-0.852 0.464-2.244 1.063-3.129 0.621-0.588-0.294-1.036-0.823-1.469-1.334-0.473-0.559-0.92-1.087-1.506-1.285-0.167-0.057-0.257-0.238-0.2-0.406s0.238-0.257 0.405-0.2c0.754 0.255 1.28 0.877 1.789 1.478 0.185 0.218 0.365 0.431 0.551 0.621 0.134-0.416 0.358-1.202 0.365-1.844 0.010-0.914-0.446-2.209-0.45-2.222-0.059-0.167 0.028-0.35 0.194-0.409s0.349 0.027 0.408 0.194c0.020 0.057 0.499 1.414 0.487 2.444-0.010 0.904-0.377 1.994-0.479 2.282 0.062 0.041 0.126 0.077 0.191 0.11 0.798 0.398 2.63-0.623 3.209-1.013 0.022-0.015 0.045-0.026 0.069-0.035 0.722-1.822 0.897-3.172 0.9-3.196 0-0.003 0.001-0.006 0.001-0.009-0.441-2.897-1.322-4.193-1.53-4.464zM14.787 10.025c-0.691-0.017-1.712-0.133-2.829-0.565-1.075-0.417-1.838-0.517-2.268-0.298-0.24 0.122-0.403 0.359-0.501 0.724-0.089 0.331-0.149 0.619-0.208 0.897-0.141 0.666-0.262 1.241-0.689 1.859-0.36 0.522-0.862 0.392-1.162 0.315-0.13-0.033-0.277-0.071-0.327-0.038-0.021 0.013-0.127 0.103-0.201 0.551-0.125 0.768 0.115 1.558 0.309 2.193 0.179 0.589 0.309 1.015 0.132 1.333-0.055 0.098-0.164 0.227-0.375 0.282-0.368 0.097-0.678-0.003-0.928-0.084-0.35-0.113-0.433-0.14-0.63 0.198-0.168 0.288-0.155 0.662-0.141 1.057 0.021 0.609 0.047 1.356-0.663 1.893 0.232 0.421 1.077 1.857 2.359 2.982 1.349 1.184 3.14 2.088 3.574 2.3 0.011-0.024 0.019-0.048 0.025-0.073 0.058-0.233-0.036-0.372-0.341-0.743-0.187-0.226-0.419-0.508-0.612-0.892-0.623-1.239-0.931-2.965 0.254-3.752 0.553-0.367 1.198-0.424 1.767-0.475 0.687-0.061 1.083-0.113 1.224-0.469 0.235-0.591-0.063-1.552-0.28-2.254-0.109-0.353-0.204-0.658-0.224-0.884l-0.008-0.084c-0.069-0.696-0.211-2.145 1.968-5.022 0.253-0.334 0.512-0.651 0.775-0.952z"></path>
</symbol>
<symbol id="icon-mainLogoMob" viewBox="0 0 92 32">
<path fill="#000" style="fill: var(--color13, #000)" d="M4.344 13.268l1.782-1.956 3.837 6.708h5.149l-6.089-10.050 6.089-7.971h-5.371l-3.886 5.656-1.51 2.29v-7.946h-4.344v18.020h4.344v-4.753zM23.169 16.82c0.116 0.528 0.248 0.928 0.396 1.201h4.171v-0.21c-0.363-0.652-0.553-1.592-0.569-2.822v-5.928c-0.025-1.452-0.532-2.595-1.522-3.428s-2.339-1.25-4.047-1.25c-1.708 0-3.115 0.404-4.22 1.213-1.097 0.809-1.646 1.861-1.646 3.156h4.171c0-0.974 0.495-1.46 1.485-1.46 1.064 0 1.597 0.615 1.597 1.844v0.706h-1.287c-2.046 0-3.606 0.371-4.678 1.114s-1.609 1.84-1.609 3.292c0 1.155 0.441 2.116 1.324 2.884 0.883 0.759 1.956 1.139 3.218 1.139 1.378 0 2.451-0.483 3.218-1.448zM22.241 14.963c-0.338 0.223-0.767 0.334-1.287 0.334-0.396 0-0.722-0.116-0.978-0.347-0.256-0.239-0.384-0.549-0.384-0.928 0-1.304 0.726-1.956 2.178-1.956h1.213v2.141c-0.148 0.281-0.396 0.532-0.743 0.755zM41.919 11.424c0 2.079-0.47 3.742-1.411 4.988-0.932 1.238-2.195 1.856-3.787 1.856-1.229 0-2.24-0.45-3.032-1.349v6.25h-4.171v-18.54h3.899l0.124 1.238c0.8-0.99 1.852-1.485 3.156-1.485 1.65 0 2.933 0.611 3.849 1.832 0.916 1.213 1.374 2.884 1.374 5.013v0.198zM37.749 11.164c0-2.376-0.693-3.564-2.079-3.564-0.99 0-1.65 0.355-1.98 1.064v5.272c0.363 0.743 1.031 1.114 2.005 1.114 1.328 0 2.013-1.147 2.054-3.441v-0.446zM48.17 18.268c1.502 0 2.694-0.565 3.577-1.696l0.123 1.448h3.911v-13.391h-4.196v9.394c-0.404 0.685-1.085 1.027-2.042 1.027-1.114 0-1.671-0.573-1.671-1.72v-8.701h-4.171v8.676c0 1.601 0.375 2.83 1.126 3.688 0.759 0.85 1.873 1.275 3.342 1.275zM65.088 14.258c0-0.355-0.186-0.639-0.557-0.854s-1.077-0.437-2.117-0.668c-1.039-0.231-1.898-0.532-2.575-0.903-0.676-0.38-1.192-0.838-1.547-1.374s-0.532-1.151-0.532-1.844c0-1.229 0.508-2.24 1.523-3.032 0.852-0.672 1.925-1.062 3.22-1.17v-3.042h1.988v3.081c1.21 0.147 2.222 0.524 3.035 1.13 1.073 0.8 1.609 1.852 1.609 3.156h-4.183c0-1.073-0.566-1.609-1.696-1.609-0.437 0-0.804 0.124-1.102 0.371-0.297 0.239-0.446 0.54-0.446 0.903 0 0.371 0.181 0.672 0.544 0.903s0.941 0.421 1.733 0.569c0.8 0.149 1.502 0.326 2.104 0.532 2.013 0.693 3.020 1.935 3.020 3.725 0 1.221-0.545 2.215-1.634 2.983-0.813 0.577-1.808 0.937-2.986 1.080v3.054h-1.988v-3.015c-0.842-0.073-1.609-0.268-2.304-0.587-0.899-0.413-1.6-0.974-2.104-1.683s-0.755-1.456-0.755-2.24h3.899c0.017 0.619 0.222 1.073 0.618 1.361 0.396 0.281 0.904 0.421 1.523 0.421 0.569 0 0.994-0.116 1.275-0.347 0.289-0.231 0.433-0.532 0.433-0.903zM75.93 4.629v-3.329h-4.171v3.329h-1.708v2.896h1.708v6.646c0 1.378 0.343 2.405 1.027 3.082s1.745 1.015 3.181 1.015c0.817 0 1.6-0.12 2.352-0.359v-2.983c-0.281 0.050-0.627 0.074-1.040 0.074-0.537 0-0.895-0.099-1.077-0.297s-0.272-0.549-0.272-1.052v-6.126h2.203v-2.896h-2.203zM87.329 18.020c-0.148-0.272-0.281-0.672-0.396-1.201-0.767 0.965-1.84 1.448-3.218 1.448-1.263 0-2.335-0.38-3.218-1.139-0.882-0.767-1.324-1.729-1.324-2.884 0-1.452 0.537-2.55 1.609-3.292s2.632-1.114 4.678-1.114h1.287v-0.706c0-1.229-0.532-1.844-1.597-1.844-0.99 0-1.486 0.487-1.486 1.46h-4.171c0-1.295 0.549-2.347 1.647-3.156 1.106-0.809 2.513-1.213 4.22-1.213s3.057 0.417 4.047 1.25c0.99 0.833 1.498 1.976 1.522 3.428v5.928c0.016 1.229 0.207 2.17 0.57 2.822v0.21h-4.171zM84.718 15.297c0.52 0 0.949-0.111 1.287-0.334 0.347-0.223 0.594-0.474 0.743-0.755v-2.141h-1.213c-1.452 0-2.178 0.652-2.178 1.956 0 0.38 0.128 0.689 0.384 0.928 0.255 0.231 0.582 0.347 0.978 0.347z"></path>
<path fill="#52555f" style="fill: var(--color4, #52555f)" d="M8.309 30.288c0-0.18-0.063-0.317-0.19-0.413-0.127-0.097-0.355-0.199-0.686-0.305-0.33-0.108-0.591-0.214-0.784-0.317-0.525-0.284-0.787-0.665-0.787-1.146 0-0.25 0.070-0.472 0.21-0.667 0.142-0.197 0.344-0.35 0.606-0.46 0.264-0.11 0.561-0.165 0.889-0.165 0.33 0 0.624 0.060 0.882 0.181 0.258 0.119 0.458 0.287 0.6 0.505 0.144 0.218 0.216 0.465 0.216 0.743h-0.952c0-0.212-0.067-0.376-0.2-0.492-0.133-0.119-0.321-0.178-0.562-0.178-0.233 0-0.414 0.050-0.543 0.149-0.129 0.097-0.194 0.226-0.194 0.387 0 0.15 0.075 0.276 0.225 0.378 0.152 0.102 0.376 0.197 0.67 0.286 0.542 0.163 0.936 0.365 1.184 0.606s0.371 0.542 0.371 0.901c0 0.4-0.151 0.714-0.454 0.943-0.303 0.226-0.71 0.34-1.222 0.34-0.356 0-0.679-0.065-0.971-0.194-0.292-0.131-0.515-0.31-0.67-0.536-0.152-0.226-0.229-0.489-0.229-0.787h0.955c0 0.51 0.305 0.765 0.914 0.765 0.226 0 0.403-0.046 0.53-0.137 0.127-0.093 0.19-0.222 0.19-0.387zM12.131 26.879l1.187 3.352 1.181-3.352h1.251v4.621h-0.955v-1.263l0.095-2.18-1.247 3.444h-0.654l-1.244-3.44 0.095 2.177v1.263h-0.952v-4.621h1.244zM20.221 30.548h-1.669l-0.317 0.952h-1.012l1.72-4.621h0.882l1.73 4.621h-1.012l-0.321-0.952zM18.809 29.777h1.155l-0.581-1.73-0.574 1.73zM24.672 29.808h-0.759v1.692h-0.952v-4.621h1.717c0.546 0 0.967 0.122 1.263 0.365s0.444 0.587 0.444 1.032c0 0.315-0.069 0.579-0.206 0.79-0.135 0.209-0.342 0.377-0.619 0.502l1 1.888v0.044h-1.022l-0.866-1.692zM23.913 29.037h0.768c0.239 0 0.424-0.060 0.555-0.181 0.131-0.123 0.197-0.291 0.197-0.505 0-0.218-0.062-0.389-0.187-0.514-0.123-0.125-0.312-0.187-0.568-0.187h-0.765v1.387zM31.407 27.65h-1.416v3.85h-0.952v-3.85h-1.396v-0.771h3.764v0.771zM38.112 29.612h-1.828v1.888h-0.952v-4.621h3.009v0.771h-2.057v1.193h1.828v0.768zM40.88 31.5h-0.952v-4.621h0.952v4.621zM46.498 31.5h-0.952l-1.853-3.041v3.041h-0.952v-4.621h0.952l1.857 3.047v-3.047h0.949v4.621zM50.971 30.548h-1.67l-0.317 0.952h-1.012l1.72-4.621h0.882l1.73 4.621h-1.013l-0.321-0.952zM49.558 29.777h1.155l-0.581-1.73-0.575 1.73zM57.468 31.5h-0.953l-1.853-3.041v3.041h-0.952v-4.621h0.952l1.857 3.047v-3.047h0.949v4.621zM62.903 29.961c-0.036 0.497-0.22 0.889-0.553 1.174-0.33 0.286-0.766 0.428-1.307 0.428-0.593 0-1.059-0.199-1.4-0.597-0.339-0.4-0.508-0.948-0.508-1.644v-0.282c0-0.444 0.078-0.836 0.235-1.174s0.38-0.598 0.669-0.778c0.292-0.182 0.63-0.273 1.016-0.273 0.533 0 0.962 0.143 1.288 0.428s0.514 0.687 0.565 1.203h-0.953c-0.023-0.298-0.106-0.514-0.251-0.648-0.142-0.135-0.358-0.203-0.651-0.203-0.318 0-0.556 0.114-0.715 0.343-0.157 0.226-0.237 0.579-0.241 1.057v0.349c0 0.499 0.075 0.864 0.225 1.095 0.152 0.231 0.392 0.346 0.717 0.346 0.294 0 0.513-0.067 0.657-0.2 0.146-0.135 0.23-0.344 0.251-0.625h0.952zM67.283 29.497h-1.828v1.238h2.145v0.765h-3.098v-4.621h3.091v0.771h-2.139v1.101h1.828v0.746z"></path>
</symbol>
<symbol id="icon-mobile_header" viewBox="0 0 93 32">
<path fill="#fb7c2f" style="fill: var(--color14, #fb7c2f)" d="M14.452 5.161h17.548c4.561 0 8.258 3.697 8.258 8.258v10.323c0 4.561-3.697 8.258-8.258 8.258h-17.548c-4.561 0-8.258-3.697-8.258-8.258v-10.323c0-4.561 3.697-8.258 8.258-8.258z"></path>
<path fill="#fb7c2f" style="fill: var(--color14, #fb7c2f)" opacity="0.2" d="M8.258 0h17.548c4.561 0 8.258 3.697 8.258 8.258v10.323c0 4.561-3.697 8.258-8.258 8.258h-17.548c-4.561 0-8.258-3.697-8.258-8.258v-10.323c0-4.561 3.697-8.258 8.258-8.258z"></path>
<path fill="#000" style="fill: var(--color13, #000)" d="M23.88 21.234l1.327-1.456 2.857 4.995h3.834l-4.534-7.483 4.534-5.935h-3.999l-2.894 4.211-1.124 1.705v-5.916h-3.235v13.418h3.235v-3.539zM38.929 23.878c0.086 0.393 0.184 0.691 0.295 0.894h3.106v-0.157c-0.27-0.485-0.412-1.186-0.424-2.101v-4.414c-0.018-1.081-0.396-1.932-1.134-2.553s-1.742-0.931-3.013-0.931c-1.272 0-2.319 0.301-3.142 0.903-0.817 0.602-1.226 1.385-1.226 2.35h3.106c0-0.725 0.369-1.087 1.106-1.087 0.792 0 1.189 0.458 1.189 1.373v0.525h-0.958c-1.524 0-2.685 0.276-3.483 0.829s-1.198 1.37-1.198 2.451c0 0.86 0.329 1.576 0.986 2.147 0.657 0.565 1.456 0.848 2.396 0.848 1.026 0 1.825-0.359 2.396-1.078zM38.237 22.496c-0.252 0.166-0.571 0.249-0.958 0.249-0.295 0-0.538-0.086-0.728-0.258-0.19-0.178-0.286-0.409-0.286-0.691 0-0.971 0.541-1.456 1.622-1.456h0.903v1.594c-0.111 0.209-0.295 0.396-0.553 0.562zM52.89 19.861c0 1.548-0.35 2.786-1.051 3.714-0.694 0.922-1.634 1.382-2.82 1.382-0.915 0-1.668-0.335-2.258-1.005v4.654h-3.106v-13.805h2.903l0.092 0.922c0.596-0.737 1.379-1.106 2.35-1.106 1.229 0 2.184 0.455 2.866 1.364 0.682 0.903 1.023 2.147 1.023 3.732v0.148zM49.784 19.667c0-1.769-0.516-2.654-1.548-2.654-0.737 0-1.229 0.264-1.474 0.793v3.926c0.27 0.553 0.768 0.829 1.493 0.829 0.989 0 1.499-0.854 1.53-2.562v-0.332zM58.576 24.957c1.118 0 2.006-0.421 2.663-1.263l0.092 1.078h2.912v-9.971h-3.124v6.994c-0.301 0.51-0.808 0.765-1.521 0.765-0.829 0-1.244-0.427-1.244-1.281v-6.478h-3.106v6.46c0 1.192 0.28 2.107 0.839 2.746 0.565 0.633 1.395 0.949 2.488 0.949zM71.173 21.971c0-0.264-0.138-0.476-0.415-0.636s-0.802-0.326-1.576-0.498c-0.774-0.172-1.413-0.396-1.917-0.673-0.504-0.283-0.888-0.624-1.152-1.023s-0.396-0.857-0.396-1.373c0-0.915 0.378-1.668 1.134-2.258 0.635-0.5 1.434-0.791 2.397-0.871v-2.265h1.48v2.294c0.901 0.109 1.655 0.39 2.26 0.841 0.799 0.596 1.198 1.379 1.198 2.35h-3.115c0-0.799-0.421-1.198-1.262-1.198-0.326 0-0.599 0.092-0.82 0.276-0.221 0.178-0.332 0.402-0.332 0.673 0 0.276 0.135 0.501 0.405 0.673s0.7 0.313 1.29 0.424c0.596 0.111 1.118 0.243 1.567 0.396 1.499 0.516 2.249 1.441 2.249 2.774 0 0.909-0.405 1.65-1.216 2.221-0.605 0.43-1.346 0.698-2.223 0.804v2.274h-1.48v-2.245c-0.627-0.054-1.199-0.2-1.715-0.437-0.67-0.307-1.192-0.725-1.567-1.253s-0.562-1.084-0.562-1.668h2.903c0.012 0.461 0.166 0.799 0.461 1.014 0.295 0.209 0.673 0.313 1.133 0.313 0.424 0 0.74-0.086 0.949-0.258 0.215-0.172 0.323-0.396 0.323-0.673zM80.278 14.801v-2.479h-3.106v2.479h-1.272v2.156h1.272v4.949c0 1.026 0.255 1.791 0.765 2.295s1.299 0.756 2.368 0.756c0.608 0 1.192-0.089 1.751-0.267v-2.221c-0.209 0.037-0.467 0.055-0.774 0.055-0.399 0-0.667-0.074-0.802-0.221s-0.203-0.409-0.203-0.783v-4.562h1.64v-2.156h-1.64zM89.798 24.772c-0.111-0.203-0.209-0.501-0.295-0.894-0.571 0.719-1.37 1.078-2.396 1.078-0.94 0-1.739-0.283-2.396-0.848-0.657-0.571-0.986-1.287-0.986-2.147 0-1.081 0.399-1.898 1.198-2.451s1.96-0.829 3.483-0.829h0.958v-0.525c0-0.915-0.396-1.373-1.189-1.373-0.737 0-1.106 0.363-1.106 1.087h-3.106c0-0.965 0.408-1.748 1.226-2.35 0.823-0.602 1.871-0.903 3.142-0.903s2.276 0.31 3.013 0.931c0.737 0.62 1.115 1.471 1.133 2.553v4.414c0.012 0.915 0.154 1.616 0.424 2.101v0.157h-3.106zM87.853 22.745c0.387 0 0.706-0.083 0.958-0.249 0.258-0.166 0.442-0.353 0.553-0.562v-1.594h-0.903c-1.081 0-1.622 0.485-1.622 1.456 0 0.283 0.095 0.513 0.286 0.691 0.19 0.172 0.433 0.258 0.728 0.258z"></path>
</symbol>
<symbol id="icon-calculator" viewBox="0 0 32 32">
<path d="M27.25 0h-22.5c-1.551 0-2.813 1.262-2.813 2.813v26.375c0 1.551 1.262 2.812 2.813 2.812h22.5c1.551 0 2.813-1.262 2.813-2.812v-26.375c0-1.551-1.262-2.813-2.813-2.813zM28.188 29.188c0 0.517-0.421 0.937-0.938 0.937h-22.5c-0.517 0-0.938-0.42-0.938-0.937v-26.375c0-0.517 0.421-0.938 0.938-0.938h22.5c0.517 0 0.938 0.421 0.938 0.938v26.375z"></path>
<path d="M25.375 3.75h-18.75c-0.518 0-0.938 0.42-0.938 0.938v7.625c0 0.518 0.42 0.938 0.938 0.938h18.75c0.518 0 0.937-0.42 0.937-0.938v-7.625c0-0.518-0.42-0.938-0.937-0.938zM24.437 11.375h-16.875v-5.75h16.875v5.75z"></path>
<path d="M10.375 15.125h-3.75c-0.518 0-0.938 0.42-0.938 0.938v3.75c0 0.518 0.42 0.938 0.938 0.938h3.75c0.518 0 0.938-0.42 0.938-0.938v-3.75c0-0.518-0.42-0.938-0.938-0.938zM9.438 18.875h-1.875v-1.875h1.875v1.875z"></path>
<path d="M10.375 22.625h-3.75c-0.518 0-0.938 0.42-0.938 0.938v3.75c0 0.518 0.42 0.937 0.938 0.937h3.75c0.518 0 0.938-0.42 0.938-0.937v-3.75c0-0.518-0.42-0.938-0.938-0.938zM9.438 26.375h-1.875v-1.875h1.875v1.875z"></path>
<path d="M17.875 15.125h-3.75c-0.518 0-0.938 0.42-0.938 0.938v3.75c0 0.518 0.42 0.938 0.938 0.938h3.75c0.518 0 0.937-0.42 0.937-0.938v-3.75c0-0.518-0.42-0.938-0.937-0.938zM16.937 18.875h-1.875v-1.875h1.875v1.875z"></path>
<path d="M17.875 22.625h-3.75c-0.518 0-0.938 0.42-0.938 0.938v3.75c0 0.518 0.42 0.937 0.938 0.937h3.75c0.518 0 0.937-0.42 0.937-0.937v-3.75c0-0.518-0.42-0.938-0.937-0.938zM16.937 26.375h-1.875v-1.875h1.875v1.875z"></path>
<path d="M25.375 15.125h-3.75c-0.518 0-0.937 0.42-0.937 0.938v11.25c0 0.518 0.42 0.937 0.937 0.937h3.75c0.518 0 0.937-0.42 0.937-0.937v-11.25c0-0.518-0.42-0.938-0.937-0.938zM24.437 26.375h-1.875v-9.375h1.875v9.375z"></path>
</symbol>
<symbol id="icon-calendar" viewBox="0 0 32 32">
<path fill="#52555f" style="fill: var(--color1, #52555f)" d="M27.961 3.307h-2.099v-0.514c0-0.518-0.42-0.938-0.937-0.938s-0.937 0.42-0.937 0.938v0.514h-2.587v-0.514c0-0.518-0.42-0.938-0.938-0.938s-0.937 0.42-0.937 0.938v0.514h-2.587v-0.514c0-0.518-0.42-0.938-0.937-0.938s-0.938 0.42-0.938 0.938v0.514h-2.587v-0.514c0-0.518-0.42-0.938-0.938-0.938s-0.938 0.42-0.938 0.938v0.514h-2.587v-0.514c0-0.518-0.42-0.938-0.938-0.938s-0.938 0.42-0.938 0.938v0.514h-2.099c-2.227 0-4.039 1.812-4.039 4.039v18.758c0 2.227 1.812 4.039 4.039 4.039h23.921c2.227 0 4.039-1.812 4.039-4.039v-18.758c0-2.227-1.812-4.039-4.039-4.039zM30.125 26.105c0 1.193-0.971 2.164-2.164 2.164h-23.921c-1.193 0-2.164-0.971-2.164-2.164v-15.333h28.25v15.333zM30.125 8.897h-28.25v-1.55c0-1.193 0.971-2.164 2.164-2.164h2.099v0.362c0 0.518 0.42 0.938 0.938 0.938s0.938-0.42 0.938-0.938v-0.362h2.587v0.362c0 0.518 0.42 0.938 0.938 0.938s0.938-0.42 0.938-0.938v-0.362h2.587v0.362c0 0.518 0.42 0.938 0.938 0.938s0.937-0.42 0.937-0.938v-0.362h2.587v0.362c0 0.518 0.42 0.938 0.937 0.938s0.938-0.42 0.938-0.938v-0.362h2.587v0.362c0 0.518 0.42 0.938 0.937 0.938s0.937-0.42 0.937-0.938v-0.362h2.099c1.193 0 2.164 0.971 2.164 2.164v1.55z"></path>
<path fill="#52555f" style="fill: var(--color1, #52555f)" d="M10.451 12.771h-3.699c-0.518 0-0.938 0.42-0.938 0.938v3.828c0 0.518 0.42 0.937 0.938 0.937h3.699c0.518 0 0.938-0.42 0.938-0.937v-3.828c0-0.518-0.42-0.938-0.938-0.938zM9.513 16.598h-1.824v-1.952h1.824v1.952z"></path>
<path fill="#52555f" style="fill: var(--color1, #52555f)" d="M17.85 12.771h-3.699c-0.518 0-0.938 0.42-0.938 0.938v3.828c0 0.518 0.42 0.937 0.938 0.937h3.699c0.518 0 0.937-0.42 0.937-0.937v-3.828c0-0.518-0.42-0.938-0.937-0.938zM16.912 16.598h-1.824v-1.952h1.824v1.952z"></path>
<path fill="#52555f" style="fill: var(--color1, #52555f)" d="M25.248 12.771h-3.699c-0.518 0-0.937 0.42-0.937 0.938v3.828c0 0.518 0.42 0.937 0.937 0.937h3.699c0.518 0 0.937-0.42 0.937-0.937v-3.828c0-0.518-0.42-0.938-0.937-0.938zM24.311 16.598h-1.824v-1.952h1.824v1.952z"></path>
<path fill="#52555f" style="fill: var(--color1, #52555f)" d="M10.451 20.041h-3.699c-0.518 0-0.938 0.42-0.938 0.938v3.827c0 0.518 0.42 0.938 0.938 0.938h3.699c0.518 0 0.938-0.42 0.938-0.938v-3.827c0-0.518-0.42-0.938-0.938-0.938zM9.513 23.868h-1.824v-1.952h1.824v1.952z"></path>
<path fill="#52555f" style="fill: var(--color1, #52555f)" d="M17.85 20.041h-3.699c-0.518 0-0.938 0.42-0.938 0.938v3.827c0 0.518 0.42 0.938 0.938 0.938h3.699c0.518 0 0.937-0.42 0.937-0.938v-3.827c0-0.518-0.42-0.938-0.937-0.938zM16.912 23.868h-1.824v-1.952h1.824v1.952z"></path>
<path fill="#52555f" style="fill: var(--color1, #52555f)" d="M25.248 20.041h-3.699c-0.518 0-0.937 0.42-0.937 0.938v3.827c0 0.518 0.42 0.938 0.937 0.938h3.699c0.518 0 0.937-0.42 0.937-0.938v-3.827c0-0.518-0.42-0.938-0.937-0.938zM24.311 23.868h-1.824v-1.952h1.824v1.952z"></path>
</symbol>
<symbol id="icon-delete" viewBox="0 0 32 32">
<path fill="#52555f" style="fill: var(--color1, #52555f)" d="M28.992 7.153l-0.706-2.118c-0.269-0.807-1.021-1.349-1.871-1.349h-5.938v-1.933c0-0.966-0.786-1.753-1.752-1.753h-5.438c-0.966 0-1.752 0.786-1.752 1.753v1.933h-5.938c-0.85 0-1.603 0.542-1.872 1.349l-0.707 2.118c-0.161 0.482-0.079 1.016 0.218 1.428s0.778 0.659 1.286 0.659h0.739l1.625 20.1c0.121 1.491 1.386 2.66 2.882 2.66h12.804c1.495 0 2.761-1.169 2.882-2.66l1.626-20.1h0.409c0.508 0 0.989-0.246 1.286-0.658s0.379-0.947 0.218-1.429zM13.41 1.875h5.191v1.811h-5.191v-1.811zM23.585 29.189c-0.043 0.525-0.487 0.936-1.013 0.936h-12.804c-0.525 0-0.97-0.411-1.013-0.936l-1.614-19.949h18.056l-1.613 19.949zM4.925 7.365l0.579-1.737c0.013-0.040 0.051-0.067 0.093-0.067h20.818c0.042 0 0.079 0.027 0.093 0.067l0.579 1.737h-22.162z"></path>
<path fill="#52555f" style="fill: var(--color1, #52555f)" d="M20.595 29.122c0.017 0.001 0.033 0.001 0.050 0.001 0.495 0 0.91-0.388 0.935-0.889l0.88-16.9c0.027-0.517-0.37-0.958-0.887-0.985-0.518-0.028-0.958 0.37-0.985 0.887l-0.88 16.9c-0.027 0.517 0.37 0.958 0.887 0.985z"></path>
<path fill="#52555f" style="fill: var(--color1, #52555f)" d="M10.473 28.237c0.027 0.5 0.441 0.886 0.935 0.886 0.017 0 0.035-0.001 0.052-0.001 0.517-0.028 0.913-0.47 0.885-0.987l-0.922-16.9c-0.028-0.517-0.47-0.913-0.987-0.885s-0.913 0.47-0.885 0.987l0.922 16.9z"></path>
<path fill="#52555f" style="fill: var(--color1, #52555f)" d="M16.016 29.123c0.518 0 0.938-0.42 0.938-0.937v-16.9c0-0.518-0.42-0.938-0.938-0.938s-0.938 0.42-0.938 0.938v16.9c0 0.518 0.42 0.937 0.938 0.937z"></path>
</symbol>
<symbol id="icon-google-symbol" viewBox="0 0 32 32">
<path fill="#2196f3" style="fill: var(--color1, #2196f3)" d="M31.394 13.038c0.139 0 0.251 0.115 0.251 0.258v2.704c0 1.012-0.092 2.002-0.268 2.962-1.362 7.457-7.777 13.092-15.466 13.038-8.628-0.061-15.532-7.2-15.513-16.036 0.019-8.82 7.007-15.964 15.623-15.964 4.221 0 8.052 1.715 10.864 4.501 0.102 0.101 0.104 0.266 0.004 0.369l-3.736 3.826c-0.096 0.098-0.252 0.101-0.35 0.005-1.765-1.721-4.153-2.777-6.783-2.777-5.43 0-9.802 4.446-9.839 10.007-0.037 5.597 4.382 10.146 9.839 10.146 4.427 0 8.172-2.995 9.407-7.115h-9.155c-0.139 0-0.252-0.115-0.252-0.258v-5.408c0-0.142 0.113-0.258 0.252-0.258l15.121 0z"></path>
<path fill="#1e88e5" style="fill: var(--color2, #1e88e5)" d="M31.393 13.038h-1.886c0.139 0 0.251 0.115 0.251 0.258v2.704c0 1.012-0.092 2.002-0.268 2.962-1.299 7.114-7.198 12.57-14.414 13.009 0.276 0.017 0.554 0.026 0.834 0.028 7.689 0.054 14.104-5.581 15.466-13.038 0.176-0.96 0.268-1.95 0.268-2.962v-2.704c0-0.142-0.113-0.258-0.252-0.258z"></path>
<path fill="#f44336" style="fill: var(--color3, #f44336)" d="M7.084 11.78l-4.745-3.511c2.662-4.931 7.792-8.269 13.682-8.269 4.222 0 8.052 1.715 10.864 4.501 0.102 0.101 0.104 0.266 0.004 0.369l-3.736 3.826c-0.096 0.098-0.251 0.101-0.35 0.005-1.765-1.721-4.153-2.777-6.783-2.777-3.963 0-7.379 2.399-8.937 5.857z"></path>
<path fill="#e53935" style="fill: var(--color4, #e53935)" d="M5.714 10.767l1.37 1.014c1.423-3.156 4.393-5.429 7.914-5.802 0.027-0.003 0.052-0.006 0.079-0.009-0.31-0.030-0.624-0.046-0.941-0.046-3.58 0-6.7 1.933-8.421 4.843z"></path>
<path fill="#e53935" style="fill: var(--color4, #e53935)" d="M24.999 4.501c0.102 0.101 0.104 0.266 0.004 0.369l-3.032 3.105c0.291 0.226 0.569 0.468 0.833 0.726 0.099 0.096 0.254 0.094 0.35-0.005l3.736-3.826c0.1-0.102 0.097-0.268-0.004-0.369-2.812-2.786-6.643-4.501-10.864-4.501-0.317 0-0.631 0.011-0.943 0.030 3.847 0.235 7.32 1.894 9.921 4.471z"></path>
<path fill="#4caf50" style="fill: var(--color5, #4caf50)" d="M27.482 26.874c-2.853 3.153-6.932 5.126-11.461 5.126-6.117 0-11.412-3.6-13.977-8.844l4.844-3.4c1.454 3.704 4.995 6.32 9.133 6.32 2.596 0 4.958-1.030 6.716-2.713l4.745 3.51z"></path>
<path fill="#43a047" style="fill: var(--color6, #43a047)" d="M6.888 19.756l-1.428 1.003c1.659 3.165 4.922 5.318 8.675 5.318 0.317 0 0.631-0.016 0.941-0.046-3.726-0.364-6.846-2.855-8.187-6.274z"></path>
<path fill="#43a047" style="fill: var(--color6, #43a047)" d="M16.021 32c4.529 0 8.608-1.973 11.461-5.126l-1.162-0.86c-2.679 3.414-6.698 5.679-11.239 5.957 0.311 0.019 0.625 0.029 0.941 0.029z"></path>
<path fill="#ffc107" style="fill: var(--color7, #ffc107)" d="M6.182 16c0 1.328 0.251 2.595 0.707 3.756l-4.844 3.4c-1.054-2.153-1.647-4.584-1.647-7.156 0-2.804 0.704-5.439 1.941-7.731l4.745 3.511c-0.579 1.283-0.902 2.713-0.902 4.22z"></path>
<path fill="#ffb300" style="fill: var(--color8, #ffb300)" d="M5.46 20.759l1.428-1.003c-0.456-1.161-0.707-2.429-0.707-3.756 0-1.507 0.323-2.937 0.902-4.22l-1.37-1.014c-0.889 1.504-1.406 3.269-1.418 5.164-0.012 1.747 0.411 3.392 1.164 4.829z"></path>
</symbol>
</defs>
</svg>
